SplineFontDB: 3.2
FontName: SoftCode
FullName: SoftCode Regular
FamilyName: SoftCode
Weight: Book
Copyright: (c) 2013-2020 Fabio Y. Goto
UComments: "2013-6-22: Created."
Version: 0.0.1
ItalicAngle: 0
UnderlinePosition: -122
UnderlineWidth: 58
Ascent: 812
Descent: 188
InvalidEm: 0
LayerCount: 2
Layer: 0 0 "Back" 1
Layer: 1 0 "Fore" 0
XUID: [1021 435 22966 28455]
FSType: 0
OS2Version: 0
OS2_WeightWidthSlopeOnly: 0
OS2_UseTypoMetrics: 1
CreationTime: 1371875741
ModificationTime: 1583858528
PfmFamily: 17
TTFWeight: 400
TTFWidth: 5
LineGap: 90
VLineGap: 90
OS2TypoAscent: 0
OS2TypoAOffset: 1
OS2TypoDescent: 0
OS2TypoDOffset: 1
OS2TypoLinegap: 90
OS2WinAscent: 0
OS2WinAOffset: 1
OS2WinDescent: 0
OS2WinDOffset: 1
HheadAscent: 0
HheadAOffset: 1
HheadDescent: 0
HheadDOffset: 1
OS2Vendor: 'PfEd'
MarkAttachClasses: 1
DEI: 91125
LangName: 1033
GaspTable: 11 7 3 8 2 9 3 10 2 11 3 12 1 13 3 14 2 15 3 16 2 65535 3 0
Encoding: ISO8859-1
Compacted: 1
UnicodeInterp: none
NameList: Adobe Glyph List
DisplaySize: -24
AntiAlias: 1
FitToEm: 1
WinInfo: 0 30 19
BeginPrivate: 0
EndPrivate
TeXData: 1 0 0 393216 196608 131072 458752 1048576 131072 783286 444596 497025 792723 393216 433062 380633 303038 157286 324010 404750 52429 2506097 1059062 262144
BeginChars: 276 208

StartChar: A
Encoding: 65 65 0
Width: 375
VWidth: 0
Flags: W
HStem: 0 21G<0 62 250 312> 125 63<80 232> 605 20G<109.5 203.5>
VStem: 0 62<0 122.8> 250 62<0 122.8>
LayerCount: 2
Fore
SplineSet
125 625 m 1
 188 625 l 1
 219 563 312 250 312 0 c 1
 250 0 l 1
 250 35 247 78 241 125 c 1
 71 125 l 1
 65 78 62 35 62 0 c 1
 0 0 l 1
 0 250 94 563 125 625 c 1
156 534 m 1
 125 431 97 303 80 188 c 1
 232 188 l 1
 215 303 187 431 156 534 c 1
EndSplineSet
Validated: 1
EndChar

StartChar: B
Encoding: 66 66 1
Width: 375
VWidth: 0
Flags: W
HStem: 0 62<62 222.072> 312 63<62 225.357> 562 63<62 226.097>
VStem: 0 62<62 312 375 562> 258 62<96.566 278.442 405.676 532.198>
LayerCount: 2
Fore
SplineSet
0 625 m 1
 62 625 l 1
 125 625 l 2
 242 625 320 578 320 469 c 0
 320 410 298 370 260 345 c 1
 298 319 320 271 320 188 c 0
 320 32 242 0 125 0 c 2
 62 0 l 1
 0 0 l 1
 0 625 l 1
62 562 m 1
 62 375 l 1
 125 375 l 2
 187 375 258 383 258 469 c 0
 258 555 187 562 125 562 c 2
 62 562 l 1
62 312 m 1
 62 62 l 1
 125 62 l 2
 195 62 258 63 258 188 c 0
 258 311 197 312 128 312 c 0
 125 312 l 2
 62 312 l 1
EndSplineSet
Validated: 1
EndChar

StartChar: C
Encoding: 67 67 2
Width: 375
VWidth: 0
Flags: W
HStem: -8 70<97.7407 214.525> 562 71<97.7407 215.112>
VStem: -8 70<103.446 520.757> 239 64<87.1037 102.938 522.062 537.513>
LayerCount: 2
Fore
SplineSet
156 633 m 0
 241 633 282 592 303 526 c 1
 239 490 l 1
 228 537 205 562 156 562 c 0
 62 562 62 468 62 312 c 0
 62 156 62 62 156 62 c 0
 205 62 228 88 239 135 c 1
 303 99 l 1
 282 33 241 -8 156 -8 c 0
 0 -8 -8 124 -8 312 c 0
 -8 500 0 633 156 633 c 0
EndSplineSet
Validated: 1
EndChar

StartChar: I
Encoding: 73 73 3
Width: 375
VWidth: 0
Flags: W
HStem: 0 62<31 125 188 281> 562 63<31 125 188 281>
VStem: 125 63<62 562>
LayerCount: 2
Fore
SplineSet
31 625 m 1
 281 625 l 1
 281 562 l 1
 188 562 l 1
 188 62 l 1
 281 62 l 1
 281 0 l 1
 31 0 l 1
 31 62 l 1
 125 62 l 1
 125 562 l 1
 31 562 l 1
 31 625 l 1
EndSplineSet
Validated: 1
EndChar

StartChar: D
Encoding: 68 68 4
Width: 375
VWidth: 0
Flags: W
HStem: 0 62<62 148.297> 562 63<62 145.505>
VStem: 0 62<62 562> 250 70<186.142 439.962>
LayerCount: 2
Fore
SplineSet
0 625 m 1
 62 625 l 2
 156 625 236 573 285 483 c 1
 306 438 320 381 320 312 c 0
 320 93 171 0 62 0 c 2
 0 0 l 1
 0 625 l 1
62 562 m 1
 62 62 l 1
 187 62 250 171 250 312 c 0
 250 453 187 562 62 562 c 1
EndSplineSet
Validated: 1
EndChar

StartChar: E
Encoding: 69 69 5
Width: 375
VWidth: 0
Flags: W
HStem: 0 62<62 312> 312 63<62 250> 562 63<62 312>
VStem: 0 62<62 312 375 562>
LayerCount: 2
Fore
SplineSet
0 625 m 1
 312 625 l 1
 312 562 l 1
 62 562 l 1
 62 375 l 1
 250 375 l 1
 250 312 l 1
 62 312 l 1
 62 62 l 1
 312 62 l 1
 312 0 l 1
 0 0 l 1
 0 625 l 1
EndSplineSet
Validated: 1
EndChar

StartChar: F
Encoding: 70 70 6
Width: 375
VWidth: 0
Flags: W
HStem: 0 21G<0 62> 312 63<62 250> 562 63<62 312>
VStem: 0 62<0 312 375 562>
LayerCount: 2
Fore
SplineSet
0 625 m 1
 312 625 l 1
 312 562 l 1
 62 562 l 1
 62 375 l 1
 250 375 l 1
 250 312 l 1
 62 312 l 1
 62 0 l 1
 0 0 l 1
 0 625 l 1
EndSplineSet
Validated: 1
EndChar

StartChar: G
Encoding: 71 71 7
Width: 375
VWidth: 0
Flags: W
HStem: -8 70<97.7407 214.214> 0 21G<250 312> 312 63<125 250> 562 71<98.5784 213.777>
VStem: -8 70<103.446 520.757> 250 62<0 18 102.834 312>
LayerCount: 2
Fore
SplineSet
187 -6 m 0x7c
 177 -7 167 -8 156 -8 c 0
 0 -8 -8 124 -8 312 c 0
 -8 500 0 633 156 633 c 0
 157 633 159 633 160 633 c 0
 162 633 163 633 164 633 c 0
 244 630 283 590 303 526 c 1
 239 490 l 1
 228 537 205 562 156 562 c 0
 62 562 62 468 62 312 c 0
 62 156 62 62 156 62 c 0xbc
 194 62 216 79 229 104 c 0
 234 113 237 123 239 135 c 0
 250 177 250 237 250 312 c 1
 208 312 167 312 125 312 c 1
 125 375 l 1
 312 375 l 1
 312 0 l 1
 250 0 l 1
 250 18 l 1
 233 5 212 -3 187 -6 c 0x7c
EndSplineSet
Validated: 1
EndChar

StartChar: H
Encoding: 72 72 8
Width: 375
VWidth: 0
Flags: W
HStem: 0 21G<0 62 250 312> 312 63<62 250> 605 20G<0 62 250 312>
VStem: 0 62<0 312 375 625> 250 62<0 312 375 625>
LayerCount: 2
Fore
SplineSet
0 625 m 1
 62 625 l 1
 62 375 l 1
 250 375 l 1
 250 625 l 1
 312 625 l 1
 312 0 l 1
 250 0 l 1
 250 312 l 1
 62 312 l 1
 62 0 l 1
 0 0 l 1
 0 625 l 1
EndSplineSet
Validated: 1
EndChar

StartChar: e
Encoding: 101 101 9
Width: 375
VWidth: 0
Flags: W
HStem: -8 70<93.7051 219.01> 188 62<62 250> 375 70<93.7051 218.295>
VStem: -8 70<96.8124 188 250 340.893> 250 70<250 340.893>
LayerCount: 2
Fore
SplineSet
156 445 m 0
 281 445 320 344 320 219 c 0
 320 208 320 198 319 188 c 1
 305 188 l 1
 250 188 l 1
 62 188 l 1
 64 122 75 62 156 62 c 0
 199 62 222 79 235 104 c 1
 300 88 l 1
 277 30 232 -8 156 -8 c 0
 31 -8 -8 94 -8 219 c 0
 -8 344 31 445 156 445 c 0
156 375 m 0
 75 375 64 316 62 250 c 1
 250 250 l 1
 248 316 237 375 156 375 c 0
EndSplineSet
Validated: 1
EndChar

StartChar: J
Encoding: 74 74 10
Width: 375
VWidth: 0
Flags: W
HStem: -8 70<97.241 215.158> 605 20G<250 312>
VStem: 2 65<95.3413 147.831> 250 62<98.7169 625>
LayerCount: 2
Fore
SplineSet
250 625 m 1
 312 625 l 1
 312 312 l 2
 312 140 312 -8 156 -8 c 0
 60 -8 20 47 2 146 c 1
 67 163 l 1
 76 99 98 62 156 62 c 0
 250 62 250 140 250 312 c 2
 250 625 l 1
EndSplineSet
Validated: 1
EndChar

StartChar: K
Encoding: 75 75 11
Width: 375
VWidth: 0
Flags: W
HStem: 0 21G<0 62 250 312> 605 20G<0 62 250 312>
VStem: 0 62<0 266 328 625> 250 62<0 221.364 518.964 625>
LayerCount: 2
Fore
SplineSet
0 625 m 1
 62 625 l 1
 62 328 l 1
 140 359 250 516 250 594 c 2
 250 625 l 1
 312 625 l 1
 312 594 l 2
 312 534 270 457 219 392 c 1
 285 319 312 147 312 31 c 2
 312 0 l 1
 250 0 l 1
 250 31 l 2
 250 117 237 270 174 342 c 1
 131 297 86 266 62 266 c 1
 62 0 l 1
 0 0 l 1
 0 625 l 1
EndSplineSet
Validated: 1
EndChar

StartChar: L
Encoding: 76 76 12
Width: 375
VWidth: 0
Flags: W
HStem: 0 62<62 312> 605 20G<0 62>
VStem: 0 62<62 625>
LayerCount: 2
Fore
SplineSet
0 0 m 1
 0 625 l 1
 62 625 l 1
 62 62 l 1
 312 62 l 1
 312 0 l 1
 0 0 l 1
EndSplineSet
Validated: 1
EndChar

StartChar: M
Encoding: 77 77 13
Width: 375
VWidth: 0
Flags: W
HStem: 0 21G<0 62 250 312> 605 20G<0 71.2611 240.739 312>
VStem: 0 62<0 469> 250 62<0 469>
LayerCount: 2
Fore
SplineSet
0 625 m 1
 62 625 l 1
 156 422 l 1
 250 625 l 1
 312 625 l 1
 312 0 l 1
 250 0 l 1
 250 469 l 1
 156 281 l 1
 62 469 l 1
 62 0 l 1
 0 0 l 1
 0 625 l 1
EndSplineSet
Validated: 1
EndChar

StartChar: N
Encoding: 78 78 14
Width: 375
VWidth: 0
Flags: W
HStem: 0 21G<0 62 250 312> 605 20G<0 74.0128 250 312>
VStem: 0 62<0 500> 250 62<0 188 312 625>
LayerCount: 2
Fore
SplineSet
0 625 m 1
 62 625 l 1
 250 312 l 1
 250 625 l 1
 312 625 l 1
 312 0 l 1
 250 0 l 1
 250 188 l 1
 62 500 l 1
 62 0 l 1
 0 0 l 1
 0 625 l 1
EndSplineSet
Validated: 1
EndChar

StartChar: O
Encoding: 79 79 15
Width: 375
VWidth: 0
Flags: W
HStem: -8 70<97.7407 214.259> 562 71<97.7407 214.259>
VStem: -8 70<103.446 520.757> 250 70<103.446 520.757>
LayerCount: 2
Fore
SplineSet
156 633 m 0
 312 633 320 500 320 312 c 0
 320 124 312 -8 156 -8 c 0
 0 -8 -8 124 -8 312 c 0
 -8 500 0 633 156 633 c 0
156 562 m 0
 62 562 62 468 62 312 c 0
 62 156 62 62 156 62 c 0
 250 62 250 156 250 312 c 0
 250 468 250 562 156 562 c 0
EndSplineSet
Validated: 1
EndChar

StartChar: P
Encoding: 80 80 16
Width: 375
VWidth: 0
Flags: W
HStem: 0 21G<0 62> 311 64<62 222.752> 562 63<62 224.342>
VStem: 0 62<0 312 375 562> 258 62<408.859 530.554>
LayerCount: 2
Fore
SplineSet
125 625 m 2
 195 625 320 610 320 469 c 0
 320 410 306 311 107 311 c 0
 92 311 78 311 62 312 c 1
 62 0 l 1
 0 0 l 1
 0 625 l 1
 125 625 l 2
98 562 m 0
 86 562 74 562 62 562 c 1
 62 375 l 1
 75 375 88 375 101 375 c 0
 182 375 258 381 258 469 c 0
 258 558 180 562 98 562 c 0
EndSplineSet
Validated: 1
EndChar

StartChar: Q
Encoding: 81 81 17
Width: 375
VWidth: 0
Flags: W
HStem: -125 63<247.441 312> 562 71<97.7407 214.259>
VStem: -8 70<103.471 520.757> 125 63<72.3401 250> 250 70<102.837 520.757>
LayerCount: 2
Fore
SplineSet
156 633 m 0
 312 633 320 500 320 312 c 0
 320 152 315 32 216 0 c 1
 234 -38 263 -62 312 -62 c 1
 312 -125 l 1
 251 -125 190 -112 155 -8 c 1
 0 -7 -8 124 -8 312 c 0
 -8 500 0 633 156 633 c 0
156 562 m 0
 62 562 62 468 62 312 c 0
 62 166 63 76 138 63 c 1
 130 112 125 174 125 250 c 1
 188 250 l 1
 188 239 188 227 188 216 c 0
 188 164 189 113 196 70 c 1
 250 95 250 182 250 312 c 0
 250 468 250 562 156 562 c 0
EndSplineSet
Validated: 1
EndChar

StartChar: R
Encoding: 82 82 18
Width: 375
VWidth: 0
Flags: W
HStem: 0 21G<0 62 242.615 312> 312 63<62 164> 562 63<62 224.342>
VStem: 0 62<0 312 375 562> 258 62<408.204 530.007>
LayerCount: 2
Fore
SplineSet
0 625 m 1
 125 625 l 2
 195 625 320 610 320 469 c 0
 320 466 l 0
 320 420 319 348 227 322 c 1
 312 0 l 1
 248 0 l 1
 164 312 l 1
 155 312 147 311 137 311 c 0
 124 311 110 311 94 312 c 0
 89 312 78 312 62 312 c 1
 62 0 l 1
 0 0 l 1
 0 625 l 1
98 562 m 0
 86 562 74 562 62 562 c 1
 62 375 l 1
 75 375 88 375 101 375 c 0
 182 375 258 381 258 469 c 0
 258 558 180 562 98 562 c 0
EndSplineSet
Validated: 1
EndChar

StartChar: S
Encoding: 83 83 19
Width: 375
VWidth: 0
Flags: W
HStem: -8 70<97.2343 214.282> 312 63<90.7188 211.611> 562 71<88.984 223.912>
VStem: -8 70<100.831 129.726 401.525 535.017> 250 70<100.041 273.046>
LayerCount: 2
Fore
SplineSet
156 633 m 0
 223 633 280 597 305 541 c 1
 238 523 l 1
 223 549 196 562 156 562 c 0
 94 562 62 531 62 469 c 0
 62 407 94 375 156 375 c 0
 265 375 320 297 320 188 c 0
 320 63 250 -8 156 -8 c 0
 78 -8 17 41 -2 128 c 1
 65 146 l 1
 75 93 105 62 156 62 c 0
 218 62 250 110 250 188 c 0
 250 235 234 312 156 312 c 0
 62 312 -8 375 -8 469 c 0
 -8 563 62 633 156 633 c 0
EndSplineSet
Validated: 1
EndChar

StartChar: T
Encoding: 84 84 20
Width: 375
VWidth: 0
Flags: W
HStem: 0 21G<125 188> 562 63<0 125 188 312>
VStem: 125 63<0 562>
LayerCount: 2
Fore
SplineSet
0 625 m 1
 312 625 l 1
 312 562 l 1
 188 562 l 1
 188 0 l 1
 125 0 l 1
 125 562 l 1
 0 562 l 1
 0 625 l 1
EndSplineSet
Validated: 1
EndChar

StartChar: U
Encoding: 85 85 21
Width: 375
VWidth: 0
Flags: W
HStem: -8 70<98.8236 213.282> 605 20G<0 62 250 312>
VStem: 0 62<103.771 625> 250 62<103.771 625>
LayerCount: 2
Fore
SplineSet
0 312 m 2
 0 625 l 1
 62 625 l 1
 62 312 l 2
 62 288 62 262 62 237 c 0
 62 147 71 62 156 62 c 0
 241 62 251 147 251 237 c 0
 251 262 250 288 250 312 c 2
 250 625 l 1
 312 625 l 1
 312 312 l 2
 312 124 312 -8 156 -8 c 0
 0 -8 0 124 0 312 c 2
EndSplineSet
Validated: 1
EndChar

StartChar: V
Encoding: 86 86 22
Width: 375
VWidth: 0
Flags: W
HStem: 0 21G<94 219> 605 20G<0 62 250 312>
VStem: 0 62<343.675 625> 250 62<343.675 625>
LayerCount: 2
Fore
SplineSet
0 625 m 1
 62 625 l 1
 62 562 l 2
 62 328 109 156 156 78 c 1
 203 156 250 328 250 562 c 2
 250 625 l 1
 312 625 l 1
 312 562 l 2
 312 328 250 78 188 0 c 1
 125 0 l 1
 63 78 0 328 0 562 c 2
 0 625 l 1
EndSplineSet
Validated: 1
EndChar

StartChar: W
Encoding: 87 87 23
Width: 375
VWidth: 0
Flags: W
HStem: 0 21G<62 125 188 250> 605 20G<0 62 250 312>
VStem: 0 62<216.063 625> 62 63<0 96.882> 125 63<162.155 391> 188 62<0 96.4233> 250 62<216.063 625>
LayerCount: 2
Fore
SplineSet
0 625 m 1xe0
 62 625 l 1
 62 438 l 2
 62 271 79 189 95 132 c 1
 111 186 125 267 125 359 c 2
 125 391 l 1
 188 391 l 1
 188 359 l 2
 188 267 202 186 218 132 c 1
 234 189 250 271 250 438 c 2
 250 625 l 1
 312 625 l 1
 312 438 l 2xea
 312 157 250 62 250 0 c 1
 188 0 l 1
 188 47 172 74 156 129 c 1
 140 74 125 47 125 0 c 1
 62 0 l 1xd4
 62 62 0 157 0 438 c 2
 0 625 l 1xe0
EndSplineSet
Validated: 1
EndChar

StartChar: X
Encoding: 88 88 24
Width: 375
VWidth: 0
Flags: W
HStem: 0 21G<0 62 250 312> 605 20G<0 62 250 312>
VStem: 0 62<0 135.981 488.37 625> 250 62<0 135.981 488.37 625>
LayerCount: 2
Fore
SplineSet
0 625 m 1
 62 625 l 1
 62 562 l 2
 62 516 105 444 156 366 c 1
 207 444 250 516 250 562 c 2
 250 625 l 1
 312 625 l 1
 312 562 l 2
 312 500 253 406 191 312 c 1
 253 218 312 124 312 62 c 2
 312 0 l 1
 250 0 l 1
 250 62 l 2
 250 108 207 181 156 259 c 1
 105 181 62 108 62 62 c 2
 62 0 l 1
 0 0 l 1
 0 62 l 2
 0 124 59 218 121 312 c 1
 59 406 0 500 0 562 c 2
 0 625 l 1
EndSplineSet
Validated: 1
EndChar

StartChar: Y
Encoding: 89 89 25
Width: 375
VWidth: 0
Flags: W
HStem: 0 21G<125 188> 605 20G<0 62 250 312>
VStem: 0 62<472.166 625> 125 63<0 289.507> 250 62<472.166 625>
LayerCount: 2
Fore
SplineSet
0 625 m 1
 62 625 l 1
 62 562 l 2
 62 491 116 402 156 322 c 1
 196 402 250 491 250 562 c 2
 250 625 l 1
 312 625 l 1
 312 562 l 2
 312 468 219 312 188 250 c 1
 188 0 l 1
 125 0 l 1
 125 250 l 1
 94 312 0 468 0 562 c 2
 0 625 l 1
EndSplineSet
Validated: 1
EndChar

StartChar: Z
Encoding: 90 90 26
Width: 375
VWidth: 0
Flags: W
HStem: 0 62<70 312> 562 63<0 242>
VStem: 0 312<0 62 562 625>
LayerCount: 2
Fore
SplineSet
0 625 m 1
 312 625 l 1
 312 562 l 1
 70 62 l 1
 312 62 l 1
 312 0 l 1
 0 0 l 1
 0 62 l 1
 242 562 l 1
 0 562 l 1
 0 625 l 1
EndSplineSet
Validated: 1
EndChar

StartChar: a
Encoding: 97 97 27
Width: 375
VWidth: 0
Flags: W
HStem: -8 70<74.2133 241.209> 0 21G<250 312> 195 63<77.7031 249.983> 375 70<82.5566 223.388>
VStem: -8 70<76.0979 177.967> 250 62<0 19 73.7491 211 260.369 346.281>
LayerCount: 2
Fore
SplineSet
156 445 m 0xbc
 250 445 312 375 312 281 c 2
 312 125 l 1
 312 0 l 1
 250 0 l 1x7c
 250 19 l 1
 221 0 176 -8 148 -8 c 0
 86 -8 -8 8 -8 125 c 0
 -8 242 93 258 148 258 c 0
 234 258 250 258 250 281 c 0
 250 343 218 375 156 375 c 0
 128 375 106 368 90 355 c 1
 34 388 l 1
 61 424 104 445 156 445 c 0xbc
250 211 m 2
 250 197 227 194 201 194 c 0
 183 194 164 195 148 195 c 0
 78 195 62 164 62 125 c 0
 62 78 86 62 148 62 c 0xbc
 179 62 250 63 250 102 c 2
 250 211 l 2
EndSplineSet
Validated: 1
EndChar

StartChar: b
Encoding: 98 98 28
Width: 375
VWidth: 0
Flags: W
HStem: -8 70<94.0407 218.503> 0 21G<0 62> 375 70<94.0407 218.503> 605 20G<0 62>
VStem: 0 62<0 25 98.2397 339.307 408 625> 250 70<95.1037 342.418>
LayerCount: 2
Fore
SplineSet
0 625 m 1x7c
 62 625 l 1
 62 408 l 1
 87 432 119 445 156 445 c 0
 281 445 320 344 320 219 c 0
 320 94 281 -8 156 -8 c 0xbc
 119 -8 87 3 62 25 c 1
 62 0 l 1
 0 0 l 1
 0 219 l 1
 0 625 l 1x7c
156 375 m 0
 94 375 62 344 62 219 c 0
 62 94 94 62 156 62 c 0
 250 62 250 141 250 219 c 0
 250 297 250 375 156 375 c 0
EndSplineSet
Validated: 1
EndChar

StartChar: c
Encoding: 99 99 29
Width: 375
VWidth: 0
Flags: W
HStem: -8 70<93.4967 219.641> 375 70<93.4967 220.259>
VStem: -8 70<95.1037 342.418> 244 65<88.0859 115.938>
LayerCount: 2
Fore
SplineSet
156 445 m 0
 243 445 289 395 309 323 c 1
 244 306 l 1
 235 346 213 375 156 375 c 0
 62 375 62 297 62 219 c 0
 62 141 62 62 156 62 c 0
 213 62 235 92 244 132 c 1
 309 114 l 1
 289 42 243 -8 156 -8 c 0
 31 -8 -8 94 -8 219 c 0
 -8 344 31 445 156 445 c 0
EndSplineSet
Validated: 1
EndChar

StartChar: d
Encoding: 100 100 30
Width: 375
VWidth: 0
Flags: W
HStem: -8 70<93.4967 217.959> 0 21G<250 312> 375 70<93.4967 217.959> 605 20G<250 312>
VStem: -8 70<95.1037 342.418> 250 62<0 25 98.2397 339.307 408 625>
LayerCount: 2
Fore
SplineSet
312 625 m 1xbc
 312 219 l 1
 312 0 l 1
 250 0 l 1x7c
 250 25 l 1
 225 3 193 -8 156 -8 c 0
 31 -8 -8 94 -8 219 c 0
 -8 344 31 445 156 445 c 0
 193 445 225 432 250 408 c 1
 250 625 l 1
 312 625 l 1xbc
156 375 m 0
 62 375 62 297 62 219 c 0
 62 141 62 62 156 62 c 0xbc
 218 62 250 94 250 219 c 0
 250 344 218 375 156 375 c 0
EndSplineSet
Validated: 1
EndChar

StartChar: f
Encoding: 102 102 31
Width: 375
VWidth: 0
Flags: W
HStem: 0 21G<62 125> 250 62<0 62 125 250> 562 71<154.098 285.374>
VStem: 62 63<0 250 312 530.083>
LayerCount: 2
Fore
SplineSet
219 633 m 0
 278 633 327 605 356 553 c 1
 300 521 l 1
 287 546 264 562 219 562 c 0
 157 562 125 532 125 438 c 2
 125 312 l 1
 250 312 l 1
 250 250 l 1
 125 250 l 1
 125 0 l 1
 62 0 l 1
 62 250 l 1
 0 250 l 1
 0 312 l 1
 62 312 l 1
 62 438 l 2
 62 563 125 633 219 633 c 0
EndSplineSet
Validated: 1
EndChar

StartChar: g
Encoding: 103 103 32
Width: 375
VWidth: 0
Flags: W
HStem: -195 70<92.1526 220.523> -8 70<93.4995 219.819> 375 70<93.4995 222.277> 418 20G<250 312>
VStem: -8 70<93.3406 344.232> 5 62<-100.924 -71.0806> 250 62<-92.0833 31 92.5866 347.538 406 438>
LayerCount: 2
Fore
SplineSet
156 445 m 0xea
 187 445 227 437 250 406 c 1
 250 438 l 1
 312 438 l 1
 312 0 l 2
 312 -125 281 -195 156 -195 c 0
 58 -195 18 -152 5 -73 c 1
 67 -56 l 1xd6
 79 -107 108 -125 156 -125 c 0
 218 -125 250 -94 250 0 c 2
 250 31 l 1
 219 0 195 -8 156 -8 c 0
 62 -8 -8 31 -8 219 c 0
 -8 407 62 445 156 445 c 0xea
156 375 m 0xea
 62 375 62 297 62 219 c 0
 62 141 62 62 156 62 c 0
 234 62 250 118 250 188 c 2
 250 250 l 2
 250 328 234 375 156 375 c 0xea
EndSplineSet
Validated: 1
EndChar

StartChar: u
Encoding: 117 117 33
Width: 375
VWidth: 0
Flags: W
HStem: -8 70<102.469 208.548> 0 21G<250 312> 418 20G<0 62 250 312>
VStem: 0 62<110.543 438> 250 62<0 34 109.956 438>
LayerCount: 2
Fore
SplineSet
156 -8 m 0xb8
 78 -8 0 31 0 219 c 2
 0 438 l 1
 62 438 l 1
 62 219 l 2
 62 125 94 62 156 62 c 0xb8
 234 62 250 161 250 219 c 2
 250 438 l 1
 312 438 l 1
 312 219 l 1
 312 0 l 1
 250 0 l 1x78
 250 34 l 1
 225 8 193 -8 156 -8 c 0xb8
EndSplineSet
Validated: 1
EndChar

StartChar: v
Encoding: 118 118 34
Width: 375
VWidth: 0
Flags: W
HStem: 0 21G<125 188> 418 20G<0 62 250 312>
VStem: 0 62<282.426 438> 125 63<0 59.2119> 250 62<282.426 438>
LayerCount: 2
Fore
SplineSet
0 438 m 1
 62 438 l 1
 62 375 l 2
 62 312 119 193 156 102 c 1
 193 193 250 312 250 375 c 2
 250 438 l 1
 312 438 l 1
 312 375 l 2
 312 250 188 31 188 0 c 1
 125 0 l 1
 125 31 0 250 0 375 c 2
 0 438 l 1
EndSplineSet
Validated: 1
EndChar

StartChar: w
Encoding: 119 119 35
Width: 375
VWidth: 0
Flags: W
HStem: 0 21G<62 125 188 250> 418 20G<0 62 250 312>
VStem: 0 62<181.01 438> 62 63<0 66.4704> 125 63<133.679 312> 188 62<0 64.8506> 250 62<181.01 438>
LayerCount: 2
Fore
SplineSet
0 438 m 1xe0
 62 438 l 1
 62 406 l 2
 62 244 79 159 96 104 c 1
 111 159 125 229 125 312 c 1
 188 312 l 1
 188 229 202 159 217 104 c 1
 234 159 250 244 250 406 c 2
 250 438 l 1
 312 438 l 1
 312 406 l 2xea
 312 62 250 62 250 0 c 1
 188 0 l 1
 188 8 172 43 156 98 c 1
 140 43 125 8 125 0 c 1
 62 0 l 1xd4
 62 61 4 63 0 375 c 1
 0 406 l 1
 0 438 l 1xe0
EndSplineSet
Validated: 1
EndChar

StartChar: h
Encoding: 104 104 36
Width: 375
VWidth: 0
Flags: W
HStem: 0 21G<0 62 250 312> 375 70<96.882 218.297> 605 20G<0 62>
VStem: 0 62<0 336.882 410 625> 250 62<0 339.307>
LayerCount: 2
Fore
SplineSet
0 625 m 1
 62 625 l 1
 62 410 l 1
 91 437 128 445 156 445 c 0
 312 445 312 313 312 219 c 2
 312 0 l 1
 250 0 l 1
 250 219 l 2
 250 344 218 375 156 375 c 0
 101 375 62 344 62 219 c 2
 62 0 l 1
 0 0 l 1
 0 219 l 1
 0 625 l 1
EndSplineSet
Validated: 1
EndChar

StartChar: i
Encoding: 105 105 37
Width: 375
VWidth: 0
Flags: MW
HStem: 0 62<31 125 188 281> 375 63<62 125> 492 78<121.367 190.633>
VStem: 62 126<375 438> 117 78<496.367 565.633> 120 63<62 375>
LayerCount: 2
Fore
SplineSet
156 570 m 0xe8
 177 570 195 552 195 531 c 0
 195 510 177 492 156 492 c 0
 135 492 117 510 117 531 c 0
 117 552 135 570 156 570 c 0xe8
62 438 m 1xf0
 125 438 l 1
 188 438 l 1
 188 375 l 1
 188 62 l 1
 281 62 l 1
 281 0 l 1
 188 0 l 1
 125 0 l 1
 31 0 l 1
 31 62 l 1
 125 62 l 1
 125 375 l 1
 62 375 l 1
 62 438 l 1xf0
EndSplineSet
Validated: 1
EndChar

StartChar: j
Encoding: 106 106 38
Width: 375
VWidth: 0
Flags: W
HStem: -195 70<63.3265 189.025> 375 63<94 219> 492 78<152.579 222.633>
VStem: -30 67<-98.9772 -72.1194> 148 79<496.816 565.184> 219 62<-92.0833 375>
LayerCount: 2
Fore
SplineSet
188 570 m 0xf8
 209 570 227 552 227 531 c 0
 227 510 209 492 188 492 c 0
 167 492 148 510 148 531 c 0
 148 552 167 570 188 570 c 0xf8
94 438 m 1
 219 438 l 1
 281 438 l 1
 281 0 l 2
 281 -125 219 -195 125 -195 c 0
 51 -195 -9 -156 -30 -74 c 1
 37 -56 l 1
 47 -95 71 -125 125 -125 c 0
 203 -125 219 -70 219 0 c 2
 219 375 l 1xf4
 94 375 l 1
 94 438 l 1
EndSplineSet
Validated: 1
EndChar

StartChar: k
Encoding: 107 107 39
Width: 375
VWidth: 0
Flags: W
HStem: 0 21G<0 62 250 312> 125 63<62 94.265> 418 20G<250 312> 605 20G<0 62>
VStem: 0 62<0 125 188 625> 250 62<0 117.783 369.694 438>
LayerCount: 2
Fore
SplineSet
0 625 m 1
 62 625 l 1
 62 188 l 1
 85 188 250 344 250 438 c 1
 312 438 l 1
 312 383 270 318 220 260 c 1
 260 209 312 118 312 0 c 1
 250 0 l 1
 250 93 212 168 176 214 c 1
 123 162 73 125 62 125 c 1
 62 0 l 1
 0 0 l 1
 0 625 l 1
EndSplineSet
Validated: 1
EndChar

StartChar: l
Encoding: 108 108 40
Width: 375
VWidth: 0
Flags: W
HStem: 0 62<203.891 281> 562 63<31 125>
VStem: 125 63<74.8863 562>
LayerCount: 2
Fore
SplineSet
31 625 m 1
 188 625 l 1
 188 156 l 2
 188 62 219 62 281 62 c 1
 281 0 l 1
 156 0 125 62 125 156 c 2
 125 562 l 1
 31 562 l 1
 31 625 l 1
EndSplineSet
Validated: 1
EndChar

StartChar: m
Encoding: 109 109 41
Width: 375
VWidth: 0
Flags: W
HStem: 0 21G<0 62 125 188 250 312> 375 70<74.9169 122.887 200.077 247.956> 418 20G<0 62>
VStem: 0 62<0 363.497 403 438> 125 63<0 364.125> 250 62<0 373.112>
LayerCount: 2
Fore
SplineSet
109 445 m 0xdc
 153 445 173 423 181 393 c 1
 197 419 208 445 234 445 c 0
 312 445 312 374 312 312 c 2
 312 0 l 1
 250 0 l 1
 250 312 l 2
 250 343 250 375 234 375 c 0
 217 375 202 358 188 339 c 1
 188 330 188 321 188 312 c 2
 188 0 l 1
 125 0 l 1
 125 312 l 2
 125 343 125 375 109 375 c 0xdc
 92 375 76 358 62 339 c 1
 62 0 l 1
 0 0 l 1
 0 344 l 1
 0 438 l 1
 62 438 l 1xbc
 62 403 l 1
 75 425 87 445 109 445 c 0xdc
EndSplineSet
Validated: 1
EndChar

StartChar: n
Encoding: 110 110 42
Width: 375
VWidth: 0
Flags: W
HStem: 0 21G<0 62 250 312> 375 70<103.452 209.531> 418 20G<0 62>
VStem: 0 62<0 327.474 403 438> 250 62<0 327.004>
LayerCount: 2
Fore
SplineSet
156 445 m 0xd8
 234 445 312 407 312 219 c 2
 312 0 l 1
 250 0 l 1
 250 219 l 2
 250 313 218 375 156 375 c 0xd8
 78 375 62 277 62 219 c 2
 62 0 l 1
 0 0 l 1
 0 219 l 1
 0 438 l 1
 62 438 l 1xb8
 62 403 l 1
 87 429 119 445 156 445 c 0xd8
EndSplineSet
Validated: 1
EndChar

StartChar: o
Encoding: 111 111 43
Width: 375
VWidth: 0
Flags: W
HStem: -8 70<93.4967 218.503> 375 70<93.4967 218.503>
VStem: -8 70<95.1037 342.418> 250 70<95.1037 342.418>
LayerCount: 2
Fore
SplineSet
156 445 m 0
 281 445 320 344 320 219 c 0
 320 94 281 -8 156 -8 c 0
 31 -8 -8 94 -8 219 c 0
 -8 344 31 445 156 445 c 0
156 375 m 0
 62 375 62 297 62 219 c 0
 62 141 62 62 156 62 c 0
 250 62 250 141 250 219 c 0
 250 297 250 375 156 375 c 0
EndSplineSet
Validated: 1
EndChar

StartChar: p
Encoding: 112 112 44
Width: 375
VWidth: 0
Flags: W
HStem: -8 70<92.1807 218.501> 375 70<89.7232 218.501> 418 20G<0 62>
VStem: 0 62<-188 31 92.5866 347.538 406 438> 250 70<93.3406 344.232>
LayerCount: 2
Fore
SplineSet
156 445 m 0xd8
 250 445 320 407 320 219 c 0
 320 31 250 -8 156 -8 c 0
 117 -8 93 0 62 31 c 1
 62 -188 l 1
 0 -188 l 1
 0 20 0 230 0 438 c 1
 62 438 l 1xb8
 62 406 l 1
 85 437 125 445 156 445 c 0xd8
156 375 m 0xd8
 78 375 62 328 62 250 c 2
 62 188 l 2
 62 118 78 62 156 62 c 0
 250 62 250 141 250 219 c 0
 250 297 250 375 156 375 c 0xd8
EndSplineSet
Validated: 1
EndChar

StartChar: q
Encoding: 113 113 45
Width: 375
VWidth: 0
Flags: W
HStem: -8 70<93.4995 219.819> 375 70<93.4995 222.277> 418 20G<250 312>
VStem: -8 70<93.3406 344.232> 250 62<-188 31 92.5866 347.538 406 438>
LayerCount: 2
Fore
SplineSet
156 445 m 0xd8
 187 445 227 437 250 406 c 1
 250 438 l 1
 312 438 l 1xb8
 312 230 312 20 312 -188 c 1
 250 -188 l 1
 250 31 l 1
 219 0 195 -8 156 -8 c 0
 62 -8 -8 31 -8 219 c 0
 -8 407 62 445 156 445 c 0xd8
156 375 m 0xd8
 62 375 62 297 62 219 c 0
 62 141 62 62 156 62 c 0
 234 62 250 118 250 188 c 2
 250 250 l 2
 250 328 234 375 156 375 c 0xd8
EndSplineSet
Validated: 1
EndChar

StartChar: r
Encoding: 114 114 46
Width: 375
VWidth: 0
Flags: W
HStem: 0 21G<0 62> 375 70<89.7232 219.966> 418 20G<0 62>
VStem: 0 62<0 347.538 406 438> 244 67<321.224 348.884>
LayerCount: 2
Fore
SplineSet
156 445 m 0xd8
 228 445 289 422 311 323 c 1
 244 306 l 1
 235 346 213 375 156 375 c 0xd8
 78 375 62 328 62 250 c 2
 62 0 l 1
 0 0 l 1
 0 438 l 1
 62 438 l 1xb8
 62 406 l 1
 85 437 125 445 156 445 c 0xd8
EndSplineSet
Validated: 1
EndChar

StartChar: s
Encoding: 115 115 47
Width: 375
VWidth: 0
Flags: W
HStem: -8 70<89.2355 231.009> 188 62<78.3794 233.621> 375 70<80.9911 223.174>
VStem: -8 70<265.859 354.182> 250 70<82.8184 171.446>
LayerCount: 2
Fore
SplineSet
156 445 m 0
 228 445 287 421 310 354 c 1
 238 336 l 1
 223 362 196 375 156 375 c 0
 86 375 62 343 62 312 c 0
 62 265 94 250 156 250 c 0
 289 250 320 187 320 125 c 0
 320 47 265 -8 156 -8 c 0
 84 -8 26 16 3 83 c 1
 74 102 l 1
 88 76 116 62 156 62 c 0
 226 62 250 94 250 125 c 0
 250 172 218 188 156 188 c 0
 23 188 -8 250 -8 312 c 0
 -8 390 47 445 156 445 c 0
EndSplineSet
Validated: 1
EndChar

StartChar: t
Encoding: 116 116 48
Width: 375
VWidth: 0
Flags: W
HStem: -8 70<154.916 290.224> 375 63<0 62 125 312> 605 20G<62 125>
VStem: 62 63<95.7239 375 438 625>
LayerCount: 2
Fore
SplineSet
62 625 m 1
 125 625 l 1
 125 438 l 1
 312 438 l 1
 312 375 l 1
 125 375 l 1
 125 188 l 2
 125 94 157 62 219 62 c 0
 247 62 267 69 281 81 c 1
 328 34 l 1
 299 7 262 -8 219 -8 c 0
 125 -8 62 63 62 188 c 2
 62 375 l 1
 0 375 l 1
 0 438 l 1
 62 438 l 1
 62 625 l 1
EndSplineSet
Validated: 1
EndChar

StartChar: x
Encoding: 120 120 49
Width: 375
VWidth: 0
Flags: W
HStem: 0 21G<0 62 250 312> 418 20G<0 62 250 312>
VStem: 0 62<0 102.546 331.423 438> 250 62<0 102.546 331.423 438>
LayerCount: 2
Fore
SplineSet
0 438 m 1
 62 438 l 1
 62 406 l 2
 62 337 105 296 156 256 c 1
 207 296 250 337 250 406 c 2
 250 438 l 1
 312 438 l 1
 312 406 l 2
 312 321 261 267 204 218 c 1
 259 174 308 122 312 31 c 1
 312 0 l 1
 250 0 l 1
 250 31 l 2
 250 93 207 136 156 178 c 1
 105 136 62 93 62 31 c 2
 62 0 l 1
 0 0 l 1
 0 31 l 1
 4 122 53 174 108 218 c 1
 51 267 0 321 0 406 c 2
 0 438 l 1
EndSplineSet
Validated: 1
EndChar

StartChar: y
Encoding: 121 121 50
Width: 375
VWidth: 0
Flags: W
HStem: -195 70<92.1526 220.523> -8 70<92.2571 219.819> 418 20G<0 62 250 312>
VStem: 0 62<-94.2638 -71.2239 93.6802 438> 250 62<-92.0833 31 92.5866 438>
LayerCount: 2
Fore
SplineSet
0 219 m 2
 0 438 l 1
 62 438 l 1
 62 219 l 2
 62 141 62 62 156 62 c 0
 234 62 250 118 250 188 c 2
 250 438 l 1
 312 438 l 1
 312 0 l 2
 312 -125 281 -195 156 -195 c 0
 58 -195 18 -152 5 -73 c 1
 67 -56 l 1
 79 -107 108 -125 156 -125 c 0
 218 -125 250 -94 250 0 c 2
 250 31 l 1
 219 0 195 -8 156 -8 c 0
 62 -8 0 55 0 219 c 2
EndSplineSet
Validated: 1
EndChar

StartChar: z
Encoding: 122 122 51
Width: 375
VWidth: 0
Flags: W
HStem: 0 62<78 312> 375 63<0 234>
VStem: 0 312<0 62 375 438>
LayerCount: 2
Fore
SplineSet
0 438 m 1
 312 438 l 1
 312 375 l 1
 78 62 l 1
 312 62 l 1
 312 0 l 1
 0 0 l 1
 0 62 l 1
 234 375 l 1
 0 375 l 1
 0 438 l 1
EndSplineSet
Validated: 1
EndChar

StartChar: zero
Encoding: 48 48 52
Width: 375
VWidth: 0
Flags: W
HStem: -8 70<120.802 186.727> 562 71<125.773 191.198>
VStem: -8 70<161.377 462.275> 250 70<162.331 462.729>
LayerCount: 2
Fore
SplineSet
156 633 m 0
 250 633 320 500 320 312 c 0
 320 124 250 -8 156 -8 c 0
 62 -8 -8 124 -8 312 c 0
 -8 500 62 633 156 633 c 0
156 562 m 0
 144 562 135 558 125 549 c 1
 229 161 l 1
 243 210 250 268 250 312 c 0
 250 406 218 562 156 562 c 0
83 464 m 1
 69 415 62 356 62 312 c 0
 62 218 94 62 156 62 c 0
 168 62 178 67 188 76 c 1
 83 464 l 1
EndSplineSet
Validated: 1
EndChar

StartChar: one
Encoding: 49 49 53
Width: 375
VWidth: 0
Flags: W
HStem: 0 62<0 125 188 312> 605 20G<111.631 188>
VStem: 125 63<62 513>
LayerCount: 2
Fore
SplineSet
125 625 m 1
 188 625 l 1
 188 606 l 1
 188 62 l 1
 312 62 l 1
 312 0 l 1
 0 0 l 1
 0 62 l 1
 125 62 l 1
 125 513 l 1
 52 402 l 1
 0 438 l 1
 125 625 l 1
EndSplineSet
Validated: 1
EndChar

StartChar: two
Encoding: 50 50 54
Width: 375
VWidth: 0
Flags: W
HStem: 0 62<62 312> 562 71<95.1322 217.877>
VStem: 0 62<62 143.535 510.091 526.213> 250 70<372.73 527.632>
LayerCount: 2
Fore
SplineSet
156 633 m 0
 250 633 320 563 320 438 c 0
 320 266 62 250 62 62 c 1
 312 62 l 1
 312 0 l 1
 0 0 l 1
 0 62 l 2
 0 312 250 282 250 438 c 0
 250 500 234 562 156 562 c 0
 102 562 78 532 68 493 c 1
 66 494 l 1
 2 512 l 1
 24 590 78 633 156 633 c 0
EndSplineSet
Validated: 1
EndChar

StartChar: three
Encoding: 51 51 55
Width: 375
VWidth: 0
Flags: W
HStem: -8 70<99.2722 212.717> 305 70<156 218.301> 562 71<94.1647 217.923>
VStem: -1 68<94.9215 130.588 511.273 535.212> 250 70<102.663 273.533 407.079 530.173>
LayerCount: 2
Fore
SplineSet
156 633 m 0
 250 633 320 563 320 469 c 0
 320 416 298 370 262 341 c 1
 298 312 320 265 320 203 c 0
 320 109 281 -8 156 -8 c 0
 60 -8 16 52 -1 129 c 1
 67 147 l 1
 77 101 100 62 156 62 c 0
 234 62 250 141 250 203 c 0
 250 265 218 305 156 305 c 1
 156 375 l 1
 218 375 250 422 250 469 c 0
 250 516 218 562 156 562 c 0
 105 562 75 531 65 494 c 1
 -2 513 l 1
 16 583 78 633 156 633 c 0
EndSplineSet
Validated: 1
EndChar

StartChar: four
Encoding: 52 52 56
Width: 375
VWidth: 0
Flags: W
HStem: 0 21G<188 250> 188 62<70 188 250 312> 605 20G<177.973 250>
VStem: 188 62<0 188 250 485>
LayerCount: 2
Fore
SplineSet
188 625 m 1
 250 625 l 1
 250 610 l 1
 250 250 l 1
 312 250 l 1
 312 188 l 1
 250 188 l 1
 250 0 l 1
 188 0 l 1
 188 188 l 1
 0 188 l 1
 0 250 l 1
 188 625 l 1
188 485 m 1
 70 250 l 1
 188 250 l 1
 188 485 l 1
EndSplineSet
Validated: 1
EndChar

StartChar: five
Encoding: 53 53 57
Width: 375
VWidth: 0
Flags: W
HStem: -8 70<93.7912 217.836> 375 70<106.147 218.194> 562 63<94 281>
VStem: 31 63<344 369.483 406 562> 250 70<98.2397 339.14>
LayerCount: 2
Fore
SplineSet
31 625 m 1
 281 625 l 1
 281 562 l 1
 94 562 l 1
 94 406 l 1
 110 437 140 445 156 445 c 0
 234 445 320 383 320 219 c 2
 320 188 l 1
 319 188 l 1
 308 47 229 -8 156 -8 c 0
 101 -8 42 24 12 100 c 1
 70 133 l 1
 83 78 111 62 156 62 c 0
 218 62 250 94 250 219 c 0
 250 344 218 375 156 375 c 0
 125 375 110 375 94 344 c 1
 31 344 l 1
 31 625 l 1
EndSplineSet
Validated: 1
EndChar

StartChar: six
Encoding: 54 54 58
Width: 375
VWidth: 0
Flags: W
HStem: -8 70<100.546 211.454> 375 70<100.278 211.454> 562 71<98.6377 223.044>
VStem: -8 70<106.554 390.255> 250 70<106.554 331.158>
LayerCount: 2
Fore
SplineSet
156 633 m 0
 199 633 238 618 267 568 c 1
 218 540 l 1
 203 559 183 562 156 562 c 0
 99 562 76 538 67 412 c 1
 94 434 126 445 156 445 c 0
 234 445 320 375 320 219 c 0
 320 63 234 -8 156 -8 c 0
 78 -8 -8 63 -8 219 c 0
 -8 563 62 633 156 633 c 0
156 375 m 0
 109 375 62 344 62 219 c 0
 62 94 109 62 156 62 c 0
 203 62 250 94 250 219 c 0
 250 344 203 375 156 375 c 0
EndSplineSet
Validated: 1
EndChar

StartChar: seven
Encoding: 55 55 59
Width: 375
VWidth: 0
Flags: W
HStem: 0 21G<62 125> 562 63<0 250>
VStem: 62 63<0 151.549> 250 62<472.451 562>
LayerCount: 2
Fore
SplineSet
0 625 m 1
 312 625 l 1
 312 562 l 2
 312 437 125 187 125 62 c 2
 125 0 l 1
 62 0 l 1
 62 62 l 2
 62 187 250 437 250 562 c 1
 0 562 l 1
 0 625 l 1
EndSplineSet
Validated: 1
EndChar

StartChar: eight
Encoding: 56 56 60
Width: 375
VWidth: 0
Flags: W
HStem: -8 70<99.2825 212.717> 305 70<93.6995 218.301> 562 71<94.0765 217.923>
VStem: -8 70<103.746 273.533 407.079 530.173> 250 70<102.663 273.533 407.079 530.173>
LayerCount: 2
Fore
SplineSet
156 633 m 0
 250 633 320 563 320 469 c 0
 320 416 298 370 262 341 c 1
 298 312 320 265 320 203 c 0
 320 109 281 -8 156 -8 c 0
 31 -8 -8 94 -8 203 c 0
 -8 265 15 312 51 341 c 1
 15 370 -8 416 -8 469 c 0
 -8 563 62 633 156 633 c 0
156 562 m 0
 94 562 62 516 62 469 c 0
 62 422 94 375 156 375 c 0
 218 375 250 422 250 469 c 0
 250 516 218 562 156 562 c 0
156 305 m 0
 94 305 62 265 62 203 c 0
 62 141 78 62 156 62 c 0
 234 62 250 141 250 203 c 0
 250 265 218 305 156 305 c 0
EndSplineSet
Validated: 1
EndChar

StartChar: nine
Encoding: 57 57 61
Width: 375
VWidth: 0
Flags: W
HStem: -8 70<96.9538 213.362> 180 70<100.546 211.722> 562 71<100.546 211.454>
VStem: -8 70<293.842 518.255> 250 70<234.745 518.255>
LayerCount: 2
Fore
SplineSet
156 -8 m 0
 113 -8 75 7 46 57 c 1
 95 85 l 1
 110 66 129 62 156 62 c 0
 213 62 236 87 245 213 c 1
 218 191 186 180 156 180 c 0
 78 180 -8 250 -8 406 c 0
 -8 562 78 633 156 633 c 0
 234 633 320 562 320 406 c 0
 320 62 250 -8 156 -8 c 0
156 250 m 0
 203 250 250 281 250 406 c 0
 250 531 203 562 156 562 c 0
 109 562 62 531 62 406 c 0
 62 281 109 250 156 250 c 0
EndSplineSet
Validated: 1
EndChar

StartChar: dollar
Encoding: 36 36 62
Width: 375
VWidth: 0
Flags: W
HStem: -5 72<91.7136 125> 314 64<86.9821 125> 560 70<86.9821 125>
VStem: -8 70<98.7384 129.726 401.705 536.839> 125 63<-62 -0.1091 67 308 378 560 624.807 688> 250 70<99.7083 275.123>
LayerCount: 2
Fore
SplineSet
125 688 m 1
 188 688 l 1
 188 630 l 1
 241 621 284 588 305 541 c 1
 238 523 l 1
 228 542 211 554 188 560 c 1
 188 373 l 1
 277 359 320 287 320 188 c 0
 320 78 266 9 188 -5 c 1
 188 -62 l 1
 125 -62 l 1
 125 -5 l 1
 63 6 15 53 -2 128 c 1
 65 146 l 1
 73 105 93 77 125 67 c 1
 125 314 l 1
 47 327 -8 386 -8 469 c 0
 -8 552 47 616 125 630 c 1
 125 688 l 1
125 560 m 1
 83 550 62 520 62 469 c 0
 62 418 83 388 125 378 c 1
 125 560 l 1
188 308 m 1
 188 67 l 1
 230 81 250 125 250 188 c 0
 250 228 239 290 188 308 c 1
EndSplineSet
Validated: 1
EndChar

StartChar: ampersand
Encoding: 38 38 63
Width: 375
VWidth: 0
Flags: W
HStem: -8 70<95.5659 189.712> 0 21G<250 312> 555 78<130.689 183.329>
VStem: 0 62<97.3409 226.806> 62 63<404.813 551.79> 188 62<428.323 551.706> 250 62<0 49.5997 235.062 344>
LayerCount: 2
Fore
SplineSet
156 633 m 0xa8
 218 633 250 568 250 516 c 0xac
 250 439 218 382 181 336 c 1
 201 302 222 267 243 233 c 1
 249 277 250 320 250 344 c 1
 312 344 l 1
 312 279 307 206 290 144 c 1
 304 109 312 71 312 31 c 2
 312 0 l 1
 250 0 l 1x62
 250 31 l 2
 250 38 250 44 249 51 c 1
 224 15 189 -8 141 -8 c 0
 47 -8 0 63 0 172 c 0xb2
 0 237 51 285 100 338 c 1
 79 388 62 445 62 516 c 0
 62 568 94 633 156 633 c 0xa8
156 555 m 0
 140 555 125 532 125 516 c 0
 125 474 134 435 149 399 c 1
 171 432 188 470 188 516 c 0
 188 534 172 555 156 555 c 0
130 280 m 1
 93 242 62 210 62 172 c 0xb0
 62 94 110 62 141 62 c 0
 180 62 205 94 222 137 c 1
 198 183 161 227 130 280 c 1
EndSplineSet
Validated: 1
EndChar

StartChar: at
Encoding: 64 64 64
Width: 375
VWidth: 0
Flags: W
HStem: -8 21G<93.5 180.5> 148 71<189.387 241.524> 406 71<188.662 241.392> 562 71<99.224 223.516>
VStem: -8 70<104.402 519.914> 109 71<221.675 402.919> 250 62<148 157 222.503 402.182 468 534.137>
LayerCount: 2
Fore
SplineSet
156 633 m 0
 258 633 312 563 312 477 c 2
 312 344 l 1
 312 281 l 1
 312 148 l 1
 250 148 l 1
 250 157 l 1
 238 151 226 148 211 148 c 0
 141 148 109 218 109 312 c 0
 109 406 141 477 211 477 c 0
 226 477 238 474 250 468 c 1
 250 477 l 2
 250 532 211 562 156 562 c 1
 68 555 62 484 62 369 c 0
 62 351 62 332 62 312 c 0
 62 292 62 274 62 256 c 0
 62 141 68 69 156 62 c 1
 182 64 201 72 215 85 c 1
 267 33 l 1
 242 4 205 -8 156 -8 c 0
 31 -8 -8 70 -8 312 c 0
 -8 554 31 633 156 633 c 0
211 406 m 0
 195 406 180 390 180 312 c 0
 180 234 195 219 211 219 c 0
 212 219 l 0
 228 219 250 220 250 312 c 0
 250 406 227 406 211 406 c 0
EndSplineSet
Validated: 1
EndChar

StartChar: cent
Encoding: 162 162 65
Width: 375
VWidth: 0
Flags: W
HStem: 0 21G<125 188> 57 72<90.2871 125 188 222.504> 434 72<90.2871 125 188 222.504>
VStem: -8 70<156.898 405.667> 125 63<0 61.0647 129 434 501.924 562>
LayerCount: 2
Fore
SplineSet
125 562 m 1
 188 562 l 1
 188 506 l 1
 255 495 291 449 309 386 c 1
 244 368 l 1
 237 400 222 425 188 434 c 1
 188 129 l 1
 222 138 237 162 244 194 c 1
 309 177 l 1
 291 114 255 68 188 57 c 1
 188 0 l 1
 125 0 l 1
 125 57 l 1
 24 74 -8 167 -8 281 c 0
 -8 395 24 489 125 506 c 1
 125 562 l 1
125 434 m 1
 63 418 62 349 62 281 c 0
 62 213 63 145 125 129 c 1
 125 434 l 1
EndSplineSet
Validated: 1
EndChar

StartChar: sterling
Encoding: 163 163 66
Width: 375
VWidth: 0
Flags: W
HStem: 0 62<78 312> 281 63<0 43 115 219> 562 71<104.115 221.691>
VStem: 23 71<346.949 552.875> 52 65<111.667 281>
LayerCount: 2
Fore
SplineSet
156 633 m 0xf0
 215 633 251 605 271 569 c 1
 213 535 l 1
 205 551 189 562 156 562 c 0
 101 562 94 531 94 500 c 0xf0
 94 470 103 410 110 344 c 1
 219 344 l 1
 219 281 l 1
 115 281 l 1
 116 262 117 244 117 225 c 0
 117 160 107 98 78 62 c 1
 312 62 l 1
 312 0 l 1
 0 0 l 1
 0 62 l 1
 40 108 52 169 52 232 c 0xe8
 52 248 51 264 50 281 c 1
 0 281 l 1
 0 344 l 1
 43 344 l 1
 34 404 23 459 23 500 c 0
 23 562 62 633 156 633 c 0xf0
EndSplineSet
Validated: 1
EndChar

StartChar: yen
Encoding: 165 165 67
Width: 375
VWidth: 0
Flags: W
HStem: 0 21G<125 188> 125 63<31 125 188 281> 250 62<31 92 221 281> 605 20G<0 62 250 312>
VStem: 0 62<472.166 625> 125 63<0 125 188 250> 250 62<472.166 625>
LayerCount: 2
Fore
SplineSet
0 625 m 1
 62 625 l 1
 62 562 l 2
 62 491 116 402 156 322 c 1
 196 402 250 491 250 562 c 2
 250 625 l 1
 312 625 l 1
 312 562 l 2
 312 492 260 386 221 312 c 1
 281 312 l 1
 281 250 l 1
 188 250 l 1
 188 188 l 1
 281 188 l 1
 281 125 l 1
 188 125 l 1
 188 0 l 1
 125 0 l 1
 125 125 l 1
 31 125 l 1
 31 188 l 1
 125 188 l 1
 125 250 l 1
 31 250 l 1
 31 312 l 1
 92 312 l 1
 53 386 0 492 0 562 c 2
 0 625 l 1
EndSplineSet
Validated: 1
EndChar

StartChar: section
Encoding: 167 167 68
Width: 375
VWidth: 0
Flags: W
HStem: -8 70<77.0849 234.915> 188 62<81.6766 231.287> 375 63<80.7135 230.323> 562 71<76.5176 235.482>
VStem: -8 70<78.0625 125 268.765 355.765 456.427 546.844> 250 70<77.9292 168.765 268.619 355.566 500 546.751>
LayerCount: 2
Fore
SplineSet
156 633 m 0
 281 633 320 562 320 500 c 1
 250 500 l 1
 250 547 218 562 156 562 c 0
 94 562 62 547 62 500 c 0
 62 453 109 438 156 438 c 0
 281 438 320 374 320 312 c 0
 320 277 308 243 275 219 c 1
 308 195 320 160 320 125 c 0
 320 63 281 -8 156 -8 c 0
 31 -8 -8 63 -8 125 c 1
 62 125 l 1
 62 78 94 62 156 62 c 0
 218 62 250 78 250 125 c 0
 250 172 203 188 156 188 c 0
 31 188 -8 250 -8 312 c 0
 -8 347 4 382 37 406 c 1
 4 430 -8 465 -8 500 c 0
 -8 562 31 633 156 633 c 0
156 375 m 0
 109 375 62 359 62 312 c 0
 62 265 109 250 156 250 c 0
 203 250 250 265 250 312 c 0
 250 359 203 375 156 375 c 0
EndSplineSet
Validated: 1
EndChar

StartChar: degree
Encoding: 176 176 69
Width: 375
VWidth: 0
Flags: W
HStem: 430 54<54.4157 133.506> 578 55<54.4157 133.506>
VStem: -8 55<491.494 570.584> 141 54<491.494 570.584>
LayerCount: 2
Fore
SplineSet
94 633 m 0
 150 633 195 587 195 531 c 0
 195 475 150 430 94 430 c 0
 38 430 -8 475 -8 531 c 0
 -8 587 38 633 94 633 c 0
94 578 m 0
 68 578 47 557 47 531 c 0
 47 505 68 484 94 484 c 0
 120 484 141 505 141 531 c 0
 141 557 120 578 94 578 c 0
EndSplineSet
Validated: 1
EndChar

StartChar: ordfeminine
Encoding: 170 170 70
Width: 375
VWidth: 0
Flags: W
HStem: 188 62<0 188> 305 70<63.2196 124.672> 438 62<64.0723 125> 562 71<59.7472 121.332>
VStem: -8 70<375.913 436.127> 125 63<305 324 375.588 438 500 560.438>
LayerCount: 2
Fore
SplineSet
94 633 m 0
 156 633 188 594 188 500 c 2
 188 438 l 1
 188 375 l 1
 188 305 l 1
 125 305 l 1
 125 324 l 1
 115 312 105 305 94 305 c 0
 32 305 -8 344 -8 406 c 0
 -8 468 32 500 94 500 c 2
 125 500 l 1
 125 531 125 562 94 562 c 0
 77 562 69 554 65 540 c 1
 5 557 l 1
 16 610 46 633 94 633 c 0
94 438 m 2
 63 438 62 414 62 406 c 0
 62 390 63 375 94 375 c 0
 123 375 125 388 125 403 c 2
 125 406 l 1
 125 438 l 1
 94 438 l 2
0 250 m 1
 188 250 l 1
 188 188 l 1
 0 188 l 1
 0 250 l 1
EndSplineSet
Validated: 1
EndChar

StartChar: ordmasculine
Encoding: 186 186 71
Width: 375
VWidth: 0
Flags: W
HStem: 188 62<0 188> 305 70<68.4803 119.281> 562 71<68.2695 119.48>
VStem: -8 70<377.943 559.579> 125 70<377.768 559.749>
LayerCount: 2
Fore
SplineSet
94 633 m 0
 188 633 195 516 195 469 c 0
 195 422 188 305 94 305 c 0
 0 305 -8 422 -8 469 c 0
 -8 516 0 633 94 633 c 0
94 562 m 0
 63 562 62 531 62 469 c 0
 62 407 63 375 94 375 c 0
 125 375 125 407 125 469 c 0
 125 531 125 562 94 562 c 0
0 250 m 1
 188 250 l 1
 188 188 l 1
 0 188 l 1
 0 250 l 1
EndSplineSet
Validated: 1
EndChar

StartChar: Aring
Encoding: 197 197 72
Width: 375
VWidth: 0
Flags: W
HStem: 0 21G<0 62 250 312> 125 63<80 232> 719 47<116.836 195.164>
VStem: 0 62<0 116.031> 62 47<632.375 711.164> 203 47<632.375 711.164> 250 62<0 116.031>
LayerCount: 2
Fore
SplineSet
156 766 m 0xe8
 208 766 250 724 250 672 c 0xec
 250 637 230 607 202 590 c 1
 241 485 312 219 312 0 c 1
 250 0 l 1
 250 35 247 78 241 125 c 1
 71 125 l 1
 65 78 62 35 62 0 c 1
 0 0 l 1xf2
 0 219 71 485 110 590 c 1
 82 607 62 637 62 672 c 0
 62 724 104 766 156 766 c 0xe8
156 719 m 0
 130 719 109 698 109 672 c 0
 109 646 130 625 156 625 c 0
 182 625 203 646 203 672 c 0
 203 698 182 719 156 719 c 0
156 534 m 1
 125 431 97 303 80 188 c 1
 232 188 l 1
 215 303 187 431 156 534 c 1
EndSplineSet
Validated: 1
EndChar

StartChar: aring
Encoding: 229 229 73
Width: 375
VWidth: 0
Flags: W
HStem: -8 70<74.2133 241.209> 0 21G<250 312> 195 63<77.7031 249.983> 375 70<116.455 194.624> 539 47<116.836 195.164>
VStem: -8 70<76.0979 177.967> 62 47<452.66 531.164> 203 47<452.66 531.164> 250 62<0 19 73.7491 211 260.369 348.206>
LayerCount: 2
Fore
SplineSet
156 586 m 0xba80
 208 586 250 544 250 492 c 0xbb
 250 469 242 447 227 430 c 1
 281 405 312 348 312 281 c 2
 312 125 l 1
 312 0 l 1
 250 0 l 1x7880
 250 19 l 1
 221 0 176 -8 148 -8 c 0
 86 -8 -8 8 -8 125 c 0xbc80
 -8 242 93 258 148 258 c 0
 234 258 250 258 250 281 c 0
 250 343 218 375 156 375 c 0
 128 375 106 368 90 355 c 1
 34 388 l 1
 48 406 65 420 86 430 c 1
 71 447 62 469 62 492 c 0
 62 544 104 586 156 586 c 0xba80
156 539 m 0
 130 539 109 518 109 492 c 0
 109 466 130 445 156 445 c 0
 182 445 203 466 203 492 c 0
 203 518 182 539 156 539 c 0
250 211 m 2xbc80
 250 197 227 194 201 194 c 0
 183 194 164 195 148 195 c 0
 78 195 62 164 62 125 c 0
 62 78 86 62 148 62 c 0
 179 62 250 63 250 102 c 2
 250 211 l 2xbc80
EndSplineSet
Validated: 1
EndChar

StartChar: oslash
Encoding: 248 248 74
Width: 375
VWidth: 0
Flags: W
HStem: -8 70<107.7 218.503> 375 70<93.4967 204.3>
VStem: -8 70<131.174 342.418> 250 70<95.1037 306.826>
LayerCount: 2
Fore
SplineSet
270 478 m 1
 324 446 l 1
 285 379 l 1
 310 338 320 281 320 219 c 0
 320 94 281 -8 156 -8 c 0
 123 -8 95 -1 73 13 c 1
 43 -40 l 1
 -12 -9 l 1
 27 59 l 1
 2 100 -8 157 -8 219 c 0
 -8 344 31 445 156 445 c 0
 189 445 217 439 239 425 c 1
 270 478 l 1
156 375 m 0
 62 375 62 297 62 219 c 0
 62 188 62 156 68 130 c 1
 205 365 l 1
 192 371 177 375 156 375 c 0
244 308 m 1
 107 72 l 1
 120 66 135 62 156 62 c 0
 250 62 250 141 250 219 c 0
 250 250 250 282 244 308 c 1
EndSplineSet
Validated: 1
EndChar

StartChar: Oslash
Encoding: 216 216 75
Width: 375
VWidth: 0
Flags: W
HStem: -8 70<97.8568 210.765> 562 71<101.414 215.368>
VStem: -9 71<169.987 513.631> 251 70<115.279 455.013>
LayerCount: 2
Fore
SplineSet
268 672 m 1
 326 648 l 1
 291 562 l 1
 315 516 321 448 321 366 c 0
 321 347 320 330 320 310 c 0
 317 124 306 -8 155 -8 c 0
 153 -8 152 -8 150 -8 c 0
 116 -7 89 0 68 12 c 1
 45 -47 l 1
 -14 -23 l 1
 21 62 l 1
 -3 108 -9 177 -9 259 c 0
 -9 278 -8 295 -8 315 c 0
 -5 501 6 633 157 633 c 0
 159 633 160 633 162 633 c 0
 196 632 223 625 244 613 c 1
 268 672 l 1
156 562 m 0
 66 561 65 467 62 314 c 0
 62 289 62 264 62 242 c 0
 62 215 62 190 64 169 c 1
 216 543 l 1
 203 556 184 562 160 562 c 0
 159 562 157 562 156 562 c 0
248 456 m 1
 97 82 l 1
 110 69 128 62 152 62 c 0
 153 62 154 62 155 62 c 0
 246 62 247 157 250 311 c 0
 250 336 251 361 251 383 c 0
 251 410 250 435 248 456 c 1
EndSplineSet
Validated: 1
EndChar

StartChar: grave
Encoding: 96 96 76
Width: 375
VWidth: 0
Flags: W
HStem: 498 145
VStem: 84 145
LayerCount: 2
Fore
SplineSet
129 643 m 1
 229 543 l 1
 184 498 l 1
 84 598 l 1
 129 643 l 1
EndSplineSet
Validated: 1
EndChar

StartChar: asciicircum
Encoding: 94 94 77
Width: 375
VWidth: 0
Flags: W
HStem: 503 138
VStem: 62 188
LayerCount: 2
Fore
SplineSet
156 641 m 1
 200 597 l 1
 250 547 l 1
 206 503 l 1
 156 553 l 1
 106 503 l 1
 62 547 l 1
 112 597 l 1
 156 641 l 1
EndSplineSet
Validated: 1
EndChar

StartChar: acute
Encoding: 180 180 78
Width: 375
VWidth: 0
Flags: W
HStem: 498 145
VStem: 84 145
LayerCount: 2
Fore
SplineSet
184 643 m 1
 229 598 l 1
 129 498 l 1
 84 543 l 1
 184 643 l 1
EndSplineSet
Validated: 1
EndChar

StartChar: cedilla
Encoding: 184 184 79
Width: 375
VWidth: 0
Flags: W
HStem: -156 70<78.6126 167.874>
VStem: 172 62<-80.0489 -0.898031>
LayerCount: 2
Fore
SplineSet
148 62 m 1
 187 62 234 15 234 -47 c 0
 234 -102 187 -156 109 -156 c 0
 87 -156 68 -152 51 -143 c 1
 85 -85 l 1
 92 -86 99 -86 109 -86 c 0
 148 -86 172 -78 172 -47 c 0
 172 -24 156 0 148 0 c 1
 148 62 l 1
EndSplineSet
Validated: 1
EndChar

StartChar: asciitilde
Encoding: 126 126 80
Width: 375
VWidth: 0
Flags: W
HStem: 495 63<183.575 242.642> 567 63<69.2533 129.45>
VStem: 0 68<525.097 564.73> 244 68<560.077 599.857>
LayerCount: 2
Fore
SplineSet
102 630 m 0
 104 630 l 0
 140 630 169 606 185 576 c 0
 190 566 198 558 211 558 c 0
 216 558 221 559 227 562 c 0
 240 569 244 578 244 588 c 0
 244 591 244 594 243 597 c 1
 307 627 l 1
 311 617 312 607 312 595 c 0
 312 561 294 526 254 506 c 0
 238 498 224 495 210 495 c 0
 173 495 143 519 128 549 c 0
 123 559 115 567 102 567 c 0
 97 567 92 566 86 563 c 0
 73 556 68 547 68 537 c 0
 68 534 68 531 69 528 c 1
 6 498 l 1
 2 508 0 518 0 530 c 0
 0 564 19 599 59 619 c 0
 68 624 76 627 85 628 c 0
 90 630 96 630 102 630 c 0
EndSplineSet
Validated: 1
EndChar

StartChar: dieresis
Encoding: 168 168 81
Width: 375
VWidth: 0
Flags: W
HStem: 484 94<38.3939 117.606 195.099 273.606>
VStem: 31 94<491.394 570.606> 188 93<491.394 570.606>
LayerCount: 2
Fore
SplineSet
78 578 m 0
 104 578 125 557 125 531 c 0
 125 505 104 484 78 484 c 0
 52 484 31 505 31 531 c 0
 31 557 52 578 78 578 c 0
234 578 m 0
 260 578 281 557 281 531 c 0
 281 505 260 484 234 484 c 0
 208 484 188 505 188 531 c 0
 188 557 208 578 234 578 c 0
EndSplineSet
Validated: 1
EndChar

StartChar: Agrave
Encoding: 192 192 82
Width: 375
VWidth: 0
Flags: W
HStem: 0 21G<0 62 250 312> 125 63<80 232> 605 20G<109.5 203.5>
VStem: 0 62<0 122.8> 250 62<0 122.8>
LayerCount: 2
Fore
SplineSet
129 830 m 1
 229 730 l 1
 184 686 l 1
 84 785 l 1
 129 830 l 1
125 625 m 1
 188 625 l 1
 219 563 312 250 312 0 c 1
 250 0 l 1
 250 35 247 78 241 125 c 1
 71 125 l 1
 65 78 62 35 62 0 c 1
 0 0 l 1
 0 250 94 563 125 625 c 1
156 534 m 1
 125 431 97 303 80 188 c 1
 232 188 l 1
 215 303 187 431 156 534 c 1
EndSplineSet
Validated: 1
EndChar

StartChar: Aacute
Encoding: 193 193 83
Width: 375
VWidth: 0
Flags: W
HStem: 0 21G<0 62 250 312> 125 63<80 232> 605 20G<109.5 203.5>
VStem: 0 62<0 122.8> 250 62<0 122.8>
LayerCount: 2
Fore
SplineSet
184 830 m 1
 229 785 l 1
 129 686 l 1
 84 730 l 1
 184 830 l 1
125 625 m 1
 188 625 l 1
 219 563 312 250 312 0 c 1
 250 0 l 1
 250 35 247 78 241 125 c 1
 71 125 l 1
 65 78 62 35 62 0 c 1
 0 0 l 1
 0 250 94 563 125 625 c 1
156 534 m 1
 125 431 97 303 80 188 c 1
 232 188 l 1
 215 303 187 431 156 534 c 1
EndSplineSet
Validated: 1
EndChar

StartChar: Acircumflex
Encoding: 194 194 84
Width: 375
VWidth: 0
Flags: W
HStem: 0 21G<0 62 250 312> 125 63<80 232> 605 20G<109.5 203.5>
VStem: 0 62<0 122.8> 250 62<0 122.8>
LayerCount: 2
Fore
SplineSet
156 828 m 1
 200 784 l 1
 250 734 l 1
 206 690 l 1
 156 740 l 1
 106 690 l 1
 62 734 l 1
 112 784 l 1
 156 828 l 1
125 625 m 1
 188 625 l 1
 219 563 312 250 312 0 c 1
 250 0 l 1
 250 35 247 78 241 125 c 1
 71 125 l 1
 65 78 62 35 62 0 c 1
 0 0 l 1
 0 250 94 563 125 625 c 1
156 534 m 1
 125 431 97 303 80 188 c 1
 232 188 l 1
 215 303 187 431 156 534 c 1
EndSplineSet
Validated: 1
EndChar

StartChar: Atilde
Encoding: 195 195 85
Width: 375
VWidth: 0
Flags: W
HStem: 0 21G<0 62 250 312> 125 63<80 232> 605 20G<109.5 203.5> 683 62<183.575 242.642> 755 62<69.2533 128.082>
VStem: 0 68<713.097 752.73> 0 62<0 122.8> 244 68<747.077 786.857> 250 62<0 122.8>
LayerCount: 2
Fore
SplineSet
102 817 m 0xfd
 104 817 l 0
 140 817 169 794 185 764 c 0
 190 754 198 745 211 745 c 0
 216 745 221 746 227 749 c 0
 240 756 244 765 244 775 c 0
 244 778 244 781 243 784 c 1
 307 814 l 1
 311 804 312 794 312 782 c 0
 312 748 294 713 254 693 c 0
 238 685 224 683 210 683 c 0
 173 683 143 706 128 736 c 0
 123 746 115 755 102 755 c 0
 97 755 92 754 86 751 c 0
 73 744 68 735 68 725 c 0
 68 722 68 719 69 716 c 1
 6 686 l 1
 2 696 0 706 0 718 c 0
 0 752 19 787 59 807 c 0
 68 812 76 814 85 815 c 0
 90 817 96 817 102 817 c 0xfd
125 625 m 1
 188 625 l 1
 219 563 312 250 312 0 c 1
 250 0 l 1
 250 35 247 78 241 125 c 1
 71 125 l 1
 65 78 62 35 62 0 c 1
 0 0 l 1xfa80
 0 250 94 563 125 625 c 1
156 534 m 1
 125 431 97 303 80 188 c 1
 232 188 l 1
 215 303 187 431 156 534 c 1
EndSplineSet
Validated: 1
EndChar

StartChar: Adieresis
Encoding: 196 196 86
Width: 375
VWidth: 0
Flags: W
HStem: 0 21G<0 62 250 312> 125 63<80 232> 605 20G<109.5 203.5> 672 94<38.3939 117.606 195.099 273.606>
VStem: 0 62<0 122.8> 31 94<679.394 758.606> 188 93<679.394 758.606> 250 62<0 122.8>
LayerCount: 2
Fore
SplineSet
78 766 m 0xf4
 104 766 125 745 125 719 c 0
 125 693 104 672 78 672 c 0
 52 672 31 693 31 719 c 0
 31 745 52 766 78 766 c 0xf4
234 766 m 0
 260 766 281 745 281 719 c 0
 281 693 260 672 234 672 c 0
 208 672 188 693 188 719 c 0xf2
 188 745 208 766 234 766 c 0
125 625 m 1xf4
 188 625 l 1xf6
 219 563 312 250 312 0 c 1
 250 0 l 1
 250 35 247 78 241 125 c 1
 71 125 l 1
 65 78 62 35 62 0 c 1
 0 0 l 1xf9
 0 250 94 563 125 625 c 1xf4
156 534 m 1
 125 431 97 303 80 188 c 1
 232 188 l 1
 215 303 187 431 156 534 c 1
EndSplineSet
Validated: 1
EndChar

StartChar: Ccedilla
Encoding: 199 199 87
Width: 375
VWidth: 0
Flags: W
HStem: -156 70<78.6126 167.874> -8 70<98.8047 167.015> 562 71<97.7407 215.112>
VStem: -8 70<104.877 520.757> 172 62<-80.0489 -8.37871> 239 64<88.2422 102.938 522.062 537.513>
LayerCount: 2
Fore
SplineSet
156 633 m 0
 241 633 282 592 303 526 c 1
 239 490 l 1
 228 537 205 562 156 562 c 0
 62 562 62 468 62 312 c 0
 62 156 62 62 156 62 c 0
 205 62 228 88 239 135 c 1
 303 99 l 1
 289 52 265 19 223 3 c 1
 231 -12 234 -28 234 -47 c 0
 234 -102 187 -156 109 -156 c 0
 87 -156 68 -152 51 -143 c 1
 85 -85 l 1
 92 -86 99 -86 109 -86 c 0
 148 -86 172 -78 172 -47 c 0
 172 -24 156 -8 148 -8 c 1
 0 -3 -8 127 -8 312 c 0
 -8 500 0 633 156 633 c 0
EndSplineSet
Validated: 1
EndChar

StartChar: Egrave
Encoding: 200 200 88
Width: 375
VWidth: 0
Flags: W
HStem: 0 62<62 312> 312 63<62 250> 562 63<62 312>
VStem: 0 62<62 312 375 562>
LayerCount: 2
Fore
SplineSet
129 830 m 1
 229 730 l 1
 184 686 l 1
 84 785 l 1
 129 830 l 1
0 625 m 1
 312 625 l 1
 312 562 l 1
 62 562 l 1
 62 375 l 1
 250 375 l 1
 250 312 l 1
 62 312 l 1
 62 62 l 1
 312 62 l 1
 312 0 l 1
 0 0 l 1
 0 625 l 1
EndSplineSet
Validated: 1
EndChar

StartChar: Eacute
Encoding: 201 201 89
Width: 375
VWidth: 0
Flags: W
HStem: 0 62<62 312> 312 63<62 250> 562 63<62 312>
VStem: 0 62<62 312 375 562>
LayerCount: 2
Fore
SplineSet
184 830 m 1
 229 785 l 1
 129 686 l 1
 84 730 l 1
 184 830 l 1
0 625 m 1
 312 625 l 1
 312 562 l 1
 62 562 l 1
 62 375 l 1
 250 375 l 1
 250 312 l 1
 62 312 l 1
 62 62 l 1
 312 62 l 1
 312 0 l 1
 0 0 l 1
 0 625 l 1
EndSplineSet
Validated: 1
EndChar

StartChar: Ecircumflex
Encoding: 202 202 90
Width: 375
VWidth: 0
Flags: W
HStem: 0 62<62 312> 312 63<62 250> 562 63<62 312>
VStem: 0 62<62 312 375 562>
LayerCount: 2
Fore
SplineSet
156 828 m 1
 200 784 l 1
 250 734 l 1
 206 690 l 1
 156 740 l 1
 106 690 l 1
 62 734 l 1
 112 784 l 1
 156 828 l 1
0 625 m 1
 312 625 l 1
 312 562 l 1
 62 562 l 1
 62 375 l 1
 250 375 l 1
 250 312 l 1
 62 312 l 1
 62 62 l 1
 312 62 l 1
 312 0 l 1
 0 0 l 1
 0 625 l 1
EndSplineSet
Validated: 1
EndChar

StartChar: Edieresis
Encoding: 203 203 91
Width: 375
VWidth: 0
Flags: W
HStem: 0 62<62 312> 312 63<62 250> 562 63<62 312> 672 94<38.3939 117.606 195.099 273.606>
VStem: 0 62<62 312 375 562> 31 94<679.394 758.606> 188 93<679.394 758.606>
LayerCount: 2
Fore
SplineSet
78 766 m 0xf6
 104 766 125 745 125 719 c 0
 125 693 104 672 78 672 c 0
 52 672 31 693 31 719 c 0
 31 745 52 766 78 766 c 0xf6
234 766 m 0
 260 766 281 745 281 719 c 0
 281 693 260 672 234 672 c 0
 208 672 188 693 188 719 c 0
 188 745 208 766 234 766 c 0
0 625 m 1xfa
 312 625 l 1
 312 562 l 1
 62 562 l 1
 62 375 l 1
 250 375 l 1
 250 312 l 1
 62 312 l 1
 62 62 l 1
 312 62 l 1
 312 0 l 1
 0 0 l 1
 0 625 l 1xfa
EndSplineSet
Validated: 1
EndChar

StartChar: Igrave
Encoding: 204 204 92
Width: 375
VWidth: 0
Flags: W
HStem: 0 62<31 125 188 281> 562 63<31 125 188 281>
VStem: 125 63<62 562>
LayerCount: 2
Fore
SplineSet
129 830 m 1
 229 730 l 1
 184 686 l 1
 84 785 l 1
 129 830 l 1
31 625 m 1
 281 625 l 1
 281 562 l 1
 188 562 l 1
 188 62 l 1
 281 62 l 1
 281 0 l 1
 31 0 l 1
 31 62 l 1
 125 62 l 1
 125 562 l 1
 31 562 l 1
 31 625 l 1
EndSplineSet
Validated: 1
EndChar

StartChar: Iacute
Encoding: 205 205 93
Width: 375
VWidth: 0
Flags: W
HStem: 0 62<31 125 188 281> 562 63<31 125 188 281>
VStem: 125 63<62 562>
LayerCount: 2
Fore
SplineSet
184 830 m 1
 229 785 l 1
 129 686 l 1
 84 730 l 1
 184 830 l 1
31 625 m 1
 281 625 l 1
 281 562 l 1
 188 562 l 1
 188 62 l 1
 281 62 l 1
 281 0 l 1
 31 0 l 1
 31 62 l 1
 125 62 l 1
 125 562 l 1
 31 562 l 1
 31 625 l 1
EndSplineSet
Validated: 1
EndChar

StartChar: Icircumflex
Encoding: 206 206 94
Width: 375
VWidth: 0
Flags: W
HStem: 0 62<31 125 188 281> 562 63<31 125 188 281>
VStem: 125 63<62 562>
LayerCount: 2
Fore
SplineSet
156 828 m 1
 200 784 l 1
 250 734 l 1
 206 690 l 1
 156 740 l 1
 106 690 l 1
 62 734 l 1
 112 784 l 1
 156 828 l 1
31 625 m 1
 281 625 l 1
 281 562 l 1
 188 562 l 1
 188 62 l 1
 281 62 l 1
 281 0 l 1
 31 0 l 1
 31 62 l 1
 125 62 l 1
 125 562 l 1
 31 562 l 1
 31 625 l 1
EndSplineSet
Validated: 1
EndChar

StartChar: Idieresis
Encoding: 207 207 95
Width: 375
VWidth: 0
Flags: W
HStem: 0 62<31 125 188 281> 562 63<31 125 188 281> 672 94<38.3939 117.606 195.099 273.606>
VStem: 31 94<679.394 758.606> 125 63<62 562> 188 93<679.394 758.606>
LayerCount: 2
Fore
SplineSet
78 766 m 0xf0
 104 766 125 745 125 719 c 0
 125 693 104 672 78 672 c 0
 52 672 31 693 31 719 c 0
 31 745 52 766 78 766 c 0xf0
234 766 m 0
 260 766 281 745 281 719 c 0
 281 693 260 672 234 672 c 0
 208 672 188 693 188 719 c 0xe4
 188 745 208 766 234 766 c 0
31 625 m 1xf0
 281 625 l 1
 281 562 l 1xf4
 188 562 l 1
 188 62 l 1xe8
 281 62 l 1
 281 0 l 1
 31 0 l 1
 31 62 l 1xf4
 125 62 l 1
 125 562 l 1xe8
 31 562 l 1
 31 625 l 1xf0
EndSplineSet
Validated: 1
EndChar

StartChar: Ntilde
Encoding: 209 209 96
Width: 375
VWidth: 0
Flags: W
HStem: 0 21G<0 62 250 312> 605 20G<0 74.0128 250 312> 683 62<183.575 242.642> 755 62<69.2533 128.082>
VStem: 0 68<713.097 752.73> 0 62<0 500> 244 68<747.077 786.857> 250 62<0 188 312 625>
LayerCount: 2
Fore
SplineSet
102 817 m 0xfa
 104 817 l 0
 140 817 169 794 185 764 c 0
 190 754 198 745 211 745 c 0
 216 745 221 746 227 749 c 0
 240 756 244 765 244 775 c 0
 244 778 244 781 243 784 c 1
 307 814 l 1
 311 804 312 794 312 782 c 0
 312 748 294 713 254 693 c 0
 238 685 224 683 210 683 c 0
 173 683 143 706 128 736 c 0
 123 746 115 755 102 755 c 0
 97 755 92 754 86 751 c 0
 73 744 68 735 68 725 c 0
 68 722 68 719 69 716 c 1
 6 686 l 1
 2 696 0 706 0 718 c 0
 0 752 19 787 59 807 c 0
 68 812 76 814 85 815 c 0
 90 817 96 817 102 817 c 0xfa
0 625 m 1xf5
 62 625 l 1
 250 312 l 1
 250 625 l 1
 312 625 l 1
 312 0 l 1
 250 0 l 1
 250 188 l 1
 62 500 l 1
 62 0 l 1
 0 0 l 1
 0 625 l 1xf5
EndSplineSet
Validated: 1
EndChar

StartChar: Ograve
Encoding: 210 210 97
Width: 375
VWidth: 0
Flags: W
HStem: -8 70<97.7407 214.259> 562 71<97.7407 214.259>
VStem: -8 70<103.446 520.757> 250 70<103.446 520.757>
LayerCount: 2
Fore
SplineSet
129 830 m 1
 229 730 l 1
 184 686 l 1
 84 785 l 1
 129 830 l 1
156 633 m 0
 312 633 320 500 320 312 c 0
 320 124 312 -8 156 -8 c 0
 0 -8 -8 124 -8 312 c 0
 -8 500 0 633 156 633 c 0
156 562 m 0
 62 562 62 468 62 312 c 0
 62 156 62 62 156 62 c 0
 250 62 250 156 250 312 c 0
 250 468 250 562 156 562 c 0
EndSplineSet
Validated: 1
EndChar

StartChar: Oacute
Encoding: 211 211 98
Width: 375
VWidth: 0
Flags: W
HStem: -8 70<97.7407 214.259> 562 71<97.7407 214.259>
VStem: -8 70<103.446 520.757> 250 70<103.446 520.757>
LayerCount: 2
Fore
SplineSet
184 830 m 1
 229 785 l 1
 129 686 l 1
 84 730 l 1
 184 830 l 1
156 633 m 0
 312 633 320 500 320 312 c 0
 320 124 312 -8 156 -8 c 0
 0 -8 -8 124 -8 312 c 0
 -8 500 0 633 156 633 c 0
156 562 m 0
 62 562 62 468 62 312 c 0
 62 156 62 62 156 62 c 0
 250 62 250 156 250 312 c 0
 250 468 250 562 156 562 c 0
EndSplineSet
Validated: 1
EndChar

StartChar: Ocircumflex
Encoding: 212 212 99
Width: 375
VWidth: 0
Flags: W
HStem: -8 70<97.7407 214.259> 562 71<97.7407 214.259>
VStem: -8 70<103.446 520.757> 250 70<103.446 520.757>
LayerCount: 2
Fore
SplineSet
156 828 m 1
 200 784 l 1
 250 734 l 1
 206 690 l 1
 156 740 l 1
 106 690 l 1
 62 734 l 1
 112 784 l 1
 156 828 l 1
156 633 m 0
 312 633 320 500 320 312 c 0
 320 124 312 -8 156 -8 c 0
 0 -8 -8 124 -8 312 c 0
 -8 500 0 633 156 633 c 0
156 562 m 0
 62 562 62 468 62 312 c 0
 62 156 62 62 156 62 c 0
 250 62 250 156 250 312 c 0
 250 468 250 562 156 562 c 0
EndSplineSet
Validated: 1
EndChar

StartChar: Odieresis
Encoding: 214 214 100
Width: 375
VWidth: 0
Flags: W
HStem: -8 70<97.7407 214.259> 562 71<97.7407 214.259> 672 94<38.3939 117.606 195.099 273.606>
VStem: -8 70<103.446 520.757> 31 94<679.394 758.606> 188 93<679.394 758.606> 250 70<103.446 520.757>
LayerCount: 2
Fore
SplineSet
78 766 m 0xe8
 104 766 125 745 125 719 c 0
 125 693 104 672 78 672 c 0
 52 672 31 693 31 719 c 0
 31 745 52 766 78 766 c 0xe8
234 766 m 0
 260 766 281 745 281 719 c 0
 281 693 260 672 234 672 c 0
 208 672 188 693 188 719 c 0xe4
 188 745 208 766 234 766 c 0
156 633 m 0
 312 633 320 500 320 312 c 0
 320 124 312 -8 156 -8 c 0
 0 -8 -8 124 -8 312 c 0xf2
 -8 500 0 633 156 633 c 0
156 562 m 0
 62 562 62 468 62 312 c 0
 62 156 62 62 156 62 c 0
 250 62 250 156 250 312 c 0
 250 468 250 562 156 562 c 0
EndSplineSet
Validated: 1
EndChar

StartChar: Otilde
Encoding: 213 213 101
Width: 375
VWidth: 0
Flags: W
HStem: -8 70<97.7407 214.259> 562 71<97.7407 214.259> 683 62<183.575 242.642> 755 62<69.2533 128.082>
VStem: -8 70<103.446 520.757> 0 68<713.097 752.73> 244 68<747.077 786.857> 250 70<103.446 520.757>
LayerCount: 2
Fore
SplineSet
102 817 m 0xf6
 104 817 l 0
 140 817 169 794 185 764 c 0
 190 754 198 745 211 745 c 0
 216 745 221 746 227 749 c 0
 240 756 244 765 244 775 c 0
 244 778 244 781 243 784 c 1
 307 814 l 1
 311 804 312 794 312 782 c 0
 312 748 294 713 254 693 c 0
 238 685 224 683 210 683 c 0
 173 683 143 706 128 736 c 0
 123 746 115 755 102 755 c 0
 97 755 92 754 86 751 c 0
 73 744 68 735 68 725 c 0
 68 722 68 719 69 716 c 1
 6 686 l 1
 2 696 0 706 0 718 c 0
 0 752 19 787 59 807 c 0
 68 812 76 814 85 815 c 0
 90 817 96 817 102 817 c 0xf6
156 633 m 0
 312 633 320 500 320 312 c 0
 320 124 312 -8 156 -8 c 0
 0 -8 -8 124 -8 312 c 0xf9
 -8 500 0 633 156 633 c 0
156 562 m 0
 62 562 62 468 62 312 c 0
 62 156 62 62 156 62 c 0
 250 62 250 156 250 312 c 0
 250 468 250 562 156 562 c 0
EndSplineSet
Validated: 1
EndChar

StartChar: Ugrave
Encoding: 217 217 102
Width: 375
VWidth: 0
Flags: W
HStem: -8 70<98.8236 213.282> 605 20G<0 62 250 312>
VStem: 0 62<103.771 625> 250 62<103.771 625>
LayerCount: 2
Fore
SplineSet
129 830 m 1
 229 730 l 1
 184 686 l 1
 84 785 l 1
 129 830 l 1
0 625 m 1
 62 625 l 1
 62 312 l 2
 62 288 62 262 62 237 c 0
 62 147 71 62 156 62 c 0
 241 62 251 147 251 237 c 0
 251 262 250 288 250 312 c 2
 250 625 l 1
 312 625 l 1
 312 312 l 2
 312 124 312 -8 156 -8 c 0
 0 -8 0 124 0 312 c 2
 0 625 l 1
EndSplineSet
Validated: 1
EndChar

StartChar: Uacute
Encoding: 218 218 103
Width: 375
VWidth: 0
Flags: W
HStem: -8 70<98.8236 213.282> 605 20G<0 62 250 312>
VStem: 0 62<103.771 625> 250 62<103.771 625>
LayerCount: 2
Fore
SplineSet
184 830 m 1
 229 785 l 1
 129 686 l 1
 84 730 l 1
 184 830 l 1
0 625 m 1
 62 625 l 1
 62 312 l 2
 62 288 62 262 62 237 c 0
 62 147 71 62 156 62 c 0
 241 62 251 147 251 237 c 0
 251 262 250 288 250 312 c 2
 250 625 l 1
 312 625 l 1
 312 312 l 2
 312 124 312 -8 156 -8 c 0
 0 -8 0 124 0 312 c 2
 0 625 l 1
EndSplineSet
Validated: 1
EndChar

StartChar: Ucircumflex
Encoding: 219 219 104
Width: 375
VWidth: 0
Flags: W
HStem: -8 70<98.8236 213.282> 605 20G<0 62 250 312>
VStem: 0 62<103.771 625> 250 62<103.771 625>
LayerCount: 2
Fore
SplineSet
156 828 m 1
 200 784 l 1
 250 734 l 1
 206 690 l 1
 156 740 l 1
 106 690 l 1
 62 734 l 1
 112 784 l 1
 156 828 l 1
0 625 m 1
 62 625 l 1
 62 312 l 2
 62 288 62 262 62 237 c 0
 62 147 71 62 156 62 c 0
 241 62 251 147 251 237 c 0
 251 262 250 288 250 312 c 2
 250 625 l 1
 312 625 l 1
 312 312 l 2
 312 124 312 -8 156 -8 c 0
 0 -8 0 124 0 312 c 2
 0 625 l 1
EndSplineSet
Validated: 1
EndChar

StartChar: Udieresis
Encoding: 220 220 105
Width: 375
VWidth: 0
Flags: W
HStem: -8 70<98.8236 213.282> 605 20G<0 62 250 312> 672 94<38.3939 117.606 195.099 273.606>
VStem: 0 62<103.771 625> 31 94<679.394 758.606> 188 93<679.394 758.606> 250 62<103.771 625>
LayerCount: 2
Fore
SplineSet
0 312 m 2xf2
 0 625 l 1
 62 625 l 1
 62 312 l 2
 62 288 62 262 62 237 c 0
 62 147 71 62 156 62 c 0
 241 62 251 147 251 237 c 0
 251 262 250 288 250 312 c 2
 250 625 l 1
 312 625 l 1
 312 312 l 2
 312 124 312 -8 156 -8 c 0
 0 -8 0 124 0 312 c 2xf2
78 766 m 0
 104 766 125 745 125 719 c 0
 125 693 104 672 78 672 c 0
 52 672 31 693 31 719 c 0xe8
 31 745 52 766 78 766 c 0
234 766 m 0
 260 766 281 745 281 719 c 0
 281 693 260 672 234 672 c 0
 208 672 188 693 188 719 c 0xe4
 188 745 208 766 234 766 c 0
EndSplineSet
Validated: 1
EndChar

StartChar: Yacute
Encoding: 221 221 106
Width: 375
VWidth: 0
Flags: W
HStem: 0 21G<125 188> 605 20G<0 62 250 312>
VStem: 0 62<472.166 625> 125 63<0 289.507> 250 62<472.166 625>
LayerCount: 2
Fore
SplineSet
184 830 m 1
 229 785 l 1
 129 686 l 1
 84 730 l 1
 184 830 l 1
0 625 m 1
 62 625 l 1
 62 562 l 2
 62 491 116 402 156 322 c 1
 196 402 250 491 250 562 c 2
 250 625 l 1
 312 625 l 1
 312 562 l 2
 312 468 219 312 188 250 c 1
 188 0 l 1
 125 0 l 1
 125 250 l 1
 94 312 0 468 0 562 c 2
 0 625 l 1
EndSplineSet
Validated: 1
EndChar

StartChar: agrave
Encoding: 224 224 107
Width: 375
VWidth: 0
Flags: W
HStem: -8 70<74.2133 241.209> 0 21G<250 312> 195 63<77.7031 249.983> 375 70<82.5566 223.388>
VStem: -8 70<76.0979 177.967> 250 62<0 19 73.7491 211 260.369 346.281>
LayerCount: 2
Fore
SplineSet
129 643 m 1x3c
 229 543 l 1
 184 498 l 1
 84 598 l 1
 129 643 l 1x3c
156 445 m 0
 250 445 312 375 312 281 c 2
 312 125 l 1
 312 0 l 1
 250 0 l 1x7c
 250 19 l 1
 221 0 176 -8 148 -8 c 0xbc
 86 -8 -8 8 -8 125 c 0
 -8 242 93 258 148 258 c 0
 234 258 250 258 250 281 c 0
 250 343 218 375 156 375 c 0
 128 375 106 368 90 355 c 1
 34 388 l 1
 61 424 104 445 156 445 c 0
250 211 m 2
 250 197 227 194 201 194 c 0
 183 194 164 195 148 195 c 0
 78 195 62 164 62 125 c 0
 62 78 86 62 148 62 c 0xbc
 179 62 250 63 250 102 c 2
 250 211 l 2
EndSplineSet
Validated: 1
EndChar

StartChar: aacute
Encoding: 225 225 108
Width: 375
VWidth: 0
Flags: W
HStem: -8 70<74.2133 241.209> 0 21G<250 312> 195 63<77.7031 249.983> 375 70<82.5566 223.388>
VStem: -8 70<76.0979 177.967> 250 62<0 19 73.7491 211 260.369 346.281>
LayerCount: 2
Fore
SplineSet
184 643 m 1x3c
 229 598 l 1
 129 498 l 1
 84 543 l 1
 184 643 l 1x3c
156 445 m 0
 250 445 312 375 312 281 c 2
 312 125 l 1
 312 0 l 1
 250 0 l 1x7c
 250 19 l 1
 221 0 176 -8 148 -8 c 0xbc
 86 -8 -8 8 -8 125 c 0
 -8 242 93 258 148 258 c 0
 234 258 250 258 250 281 c 0
 250 343 218 375 156 375 c 0
 128 375 106 368 90 355 c 1
 34 388 l 1
 61 424 104 445 156 445 c 0
250 211 m 2
 250 197 227 194 201 194 c 0
 183 194 164 195 148 195 c 0
 78 195 62 164 62 125 c 0
 62 78 86 62 148 62 c 0xbc
 179 62 250 63 250 102 c 2
 250 211 l 2
EndSplineSet
Validated: 1
EndChar

StartChar: acircumflex
Encoding: 226 226 109
Width: 375
VWidth: 0
Flags: W
HStem: -8 70<74.2133 241.209> 0 21G<250 312> 195 63<77.7031 249.983> 375 70<82.5566 223.388>
VStem: -8 70<76.0979 177.967> 250 62<0 19 73.7491 211 260.369 346.281>
LayerCount: 2
Fore
SplineSet
156 641 m 1x3c
 200 597 l 1
 250 547 l 1
 206 503 l 1
 156 553 l 1
 106 503 l 1
 62 547 l 1
 112 597 l 1
 156 641 l 1x3c
156 445 m 0
 250 445 312 375 312 281 c 2
 312 125 l 1
 312 0 l 1
 250 0 l 1x7c
 250 19 l 1
 221 0 176 -8 148 -8 c 0xbc
 86 -8 -8 8 -8 125 c 0
 -8 242 93 258 148 258 c 0
 234 258 250 258 250 281 c 0
 250 343 218 375 156 375 c 0
 128 375 106 368 90 355 c 1
 34 388 l 1
 61 424 104 445 156 445 c 0
250 211 m 2
 250 197 227 194 201 194 c 0
 183 194 164 195 148 195 c 0
 78 195 62 164 62 125 c 0
 62 78 86 62 148 62 c 0xbc
 179 62 250 63 250 102 c 2
 250 211 l 2
EndSplineSet
Validated: 1
EndChar

StartChar: atilde
Encoding: 227 227 110
Width: 375
VWidth: 0
Flags: W
HStem: -8 70<74.2133 241.209> 0 21G<250 312> 195 63<77.7031 249.983> 375 70<82.5566 223.388> 495 63<183.575 242.642> 567 63<69.2533 129.45>
VStem: -8 70<76.0979 177.967> 0 68<525.097 564.73> 244 68<560.077 599.857> 250 62<0 19 73.7491 211 260.369 346.281>
LayerCount: 2
Fore
SplineSet
102 630 m 0x3d80
 104 630 l 0
 140 630 169 606 185 576 c 0
 190 566 198 558 211 558 c 0
 216 558 221 559 227 562 c 0
 240 569 244 578 244 588 c 0
 244 591 244 594 243 597 c 1
 307 627 l 1
 311 617 312 607 312 595 c 0
 312 561 294 526 254 506 c 0
 238 498 224 495 210 495 c 0
 173 495 143 519 128 549 c 0
 123 559 115 567 102 567 c 0
 97 567 92 566 86 563 c 0
 73 556 68 547 68 537 c 0
 68 534 68 531 69 528 c 1
 6 498 l 1
 2 508 0 518 0 530 c 0
 0 564 19 599 59 619 c 0
 68 624 76 627 85 628 c 0
 90 630 96 630 102 630 c 0x3d80
156 445 m 0
 250 445 312 375 312 281 c 2
 312 125 l 1
 312 0 l 1
 250 0 l 1x7e40
 250 19 l 1
 221 0 176 -8 148 -8 c 0
 86 -8 -8 8 -8 125 c 0
 -8 242 93 258 148 258 c 0
 234 258 250 258 250 281 c 0xbe40
 250 343 218 375 156 375 c 0
 128 375 106 368 90 355 c 1
 34 388 l 1
 61 424 104 445 156 445 c 0
250 211 m 2
 250 197 227 194 201 194 c 0
 183 194 164 195 148 195 c 0
 78 195 62 164 62 125 c 0
 62 78 86 62 148 62 c 0xbe40
 179 62 250 63 250 102 c 2
 250 211 l 2
EndSplineSet
Validated: 1
EndChar

StartChar: adieresis
Encoding: 228 228 111
Width: 375
VWidth: 0
Flags: W
HStem: -8 70<74.2133 241.209> 0 21G<250 312> 195 63<77.7031 249.983> 375 70<82.5566 223.388> 484 94<38.3939 117.606 195.099 273.606>
VStem: -8 70<76.0979 177.967> 31 94<491.394 570.606> 188 93<491.394 570.606> 250 62<0 19 73.7491 211 260.369 346.281>
LayerCount: 2
Fore
SplineSet
78 578 m 0x3a
 104 578 125 557 125 531 c 0
 125 505 104 484 78 484 c 0
 52 484 31 505 31 531 c 0
 31 557 52 578 78 578 c 0x3a
234 578 m 0
 260 578 281 557 281 531 c 0
 281 505 260 484 234 484 c 0
 208 484 188 505 188 531 c 0x39
 188 557 208 578 234 578 c 0
156 445 m 0
 250 445 312 375 312 281 c 2
 312 125 l 1
 312 0 l 1
 250 0 l 1x7c80
 250 19 l 1
 221 0 176 -8 148 -8 c 0
 86 -8 -8 8 -8 125 c 0
 -8 242 93 258 148 258 c 0
 234 258 250 258 250 281 c 0xbc80
 250 343 218 375 156 375 c 0
 128 375 106 368 90 355 c 1
 34 388 l 1
 61 424 104 445 156 445 c 0
250 211 m 2
 250 197 227 194 201 194 c 0
 183 194 164 195 148 195 c 0
 78 195 62 164 62 125 c 0
 62 78 86 62 148 62 c 0xbc80
 179 62 250 63 250 102 c 2
 250 211 l 2
EndSplineSet
Validated: 1
EndChar

StartChar: ccedilla
Encoding: 231 231 112
Width: 375
VWidth: 0
Flags: W
HStem: -156 70<78.6126 167.874> -8 70<93.6792 168.729> 375 70<93.4967 220.259>
VStem: -8 70<94.0061 342.418> 172 62<-80.0489 -8.33257> 244 65<86.917 115.938>
LayerCount: 2
Fore
SplineSet
156 445 m 0
 243 445 289 395 309 323 c 1
 244 306 l 1
 235 346 213 375 156 375 c 0
 62 375 62 297 62 219 c 0
 62 141 62 62 156 62 c 0
 213 62 235 92 244 132 c 1
 309 114 l 1
 295 62 268 24 223 4 c 1
 231 -11 234 -28 234 -47 c 0
 234 -102 187 -156 109 -156 c 0
 87 -156 68 -152 51 -143 c 1
 85 -85 l 1
 92 -86 99 -86 109 -86 c 0
 148 -86 172 -78 172 -47 c 0
 172 -24 156 -8 148 -8 c 1
 29 -4 -8 97 -8 219 c 0
 -8 344 31 445 156 445 c 0
EndSplineSet
Validated: 1
EndChar

StartChar: egrave
Encoding: 232 232 113
Width: 375
VWidth: 0
Flags: W
HStem: -8 70<93.7051 219.01> 188 62<62 250> 375 70<93.7051 218.295>
VStem: -8 70<96.8124 188 250 340.893> 250 70<250 340.893>
LayerCount: 2
Fore
SplineSet
129 643 m 1
 229 543 l 1
 184 498 l 1
 84 598 l 1
 129 643 l 1
156 445 m 0
 281 445 320 344 320 219 c 0
 320 208 320 198 319 188 c 1
 305 188 l 1
 250 188 l 1
 62 188 l 1
 64 122 75 62 156 62 c 0
 199 62 222 79 235 104 c 1
 300 88 l 1
 277 30 232 -8 156 -8 c 0
 31 -8 -8 94 -8 219 c 0
 -8 344 31 445 156 445 c 0
156 375 m 0
 75 375 64 316 62 250 c 1
 250 250 l 1
 248 316 237 375 156 375 c 0
EndSplineSet
Validated: 1
EndChar

StartChar: eacute
Encoding: 233 233 114
Width: 375
VWidth: 0
Flags: W
HStem: -8 70<93.7051 219.01> 188 62<62 250> 375 70<93.7051 218.295>
VStem: -8 70<96.8124 188 250 340.893> 250 70<250 340.893>
LayerCount: 2
Fore
SplineSet
184 643 m 1
 229 598 l 1
 129 498 l 1
 84 543 l 1
 184 643 l 1
156 445 m 0
 281 445 320 344 320 219 c 0
 320 208 320 198 319 188 c 1
 305 188 l 1
 250 188 l 1
 62 188 l 1
 64 122 75 62 156 62 c 0
 199 62 222 79 235 104 c 1
 300 88 l 1
 277 30 232 -8 156 -8 c 0
 31 -8 -8 94 -8 219 c 0
 -8 344 31 445 156 445 c 0
156 375 m 0
 75 375 64 316 62 250 c 1
 250 250 l 1
 248 316 237 375 156 375 c 0
EndSplineSet
Validated: 1
EndChar

StartChar: ecircumflex
Encoding: 234 234 115
Width: 375
VWidth: 0
Flags: W
HStem: -8 70<93.7051 219.01> 188 62<62 250> 375 70<93.7051 218.295>
VStem: -8 70<96.8124 188 250 340.893> 250 70<250 340.893>
LayerCount: 2
Fore
SplineSet
156 641 m 1
 200 597 l 1
 250 547 l 1
 206 503 l 1
 156 553 l 1
 106 503 l 1
 62 547 l 1
 112 597 l 1
 156 641 l 1
156 445 m 0
 281 445 320 344 320 219 c 0
 320 208 320 198 319 188 c 1
 305 188 l 1
 250 188 l 1
 62 188 l 1
 64 122 75 62 156 62 c 0
 199 62 222 79 235 104 c 1
 300 88 l 1
 277 30 232 -8 156 -8 c 0
 31 -8 -8 94 -8 219 c 0
 -8 344 31 445 156 445 c 0
156 375 m 0
 75 375 64 316 62 250 c 1
 250 250 l 1
 248 316 237 375 156 375 c 0
EndSplineSet
Validated: 1
EndChar

StartChar: edieresis
Encoding: 235 235 116
Width: 375
VWidth: 0
Flags: W
HStem: -8 70<93.7051 219.01> 188 62<62 250> 375 70<93.7051 218.295> 484 94<38.3939 117.606 195.099 273.606>
VStem: -8 70<96.8124 188 250 340.893> 31 94<491.394 570.606> 188 93<491.394 570.606> 250 70<250 340.893>
LayerCount: 2
Fore
SplineSet
78 578 m 0xf4
 104 578 125 557 125 531 c 0
 125 505 104 484 78 484 c 0
 52 484 31 505 31 531 c 0
 31 557 52 578 78 578 c 0xf4
234 578 m 0
 260 578 281 557 281 531 c 0
 281 505 260 484 234 484 c 0
 208 484 188 505 188 531 c 0xf2
 188 557 208 578 234 578 c 0
156 445 m 0
 281 445 320 344 320 219 c 0
 320 208 320 198 319 188 c 1
 305 188 l 1
 250 188 l 1
 62 188 l 1
 64 122 75 62 156 62 c 0
 199 62 222 79 235 104 c 1
 300 88 l 1
 277 30 232 -8 156 -8 c 0
 31 -8 -8 94 -8 219 c 0xf9
 -8 344 31 445 156 445 c 0
156 375 m 0
 75 375 64 316 62 250 c 1
 250 250 l 1
 248 316 237 375 156 375 c 0
EndSplineSet
Validated: 1
EndChar

StartChar: igrave
Encoding: 236 236 117
Width: 375
VWidth: 0
Flags: W
HStem: 0 62<31 125 188 281> 375 63<62 125>
VStem: 62 126<375 438> 125 63<62 375>
LayerCount: 2
Fore
SplineSet
129 643 m 1xc0
 229 543 l 1
 184 498 l 1
 84 598 l 1
 129 643 l 1xc0
62 438 m 1xe0
 125 438 l 1xd0
 188 438 l 1
 188 375 l 1xe0
 188 62 l 1
 281 62 l 1
 281 0 l 1
 188 0 l 1
 125 0 l 1
 31 0 l 1
 31 62 l 1
 125 62 l 1
 125 375 l 1xd0
 62 375 l 1
 62 438 l 1xe0
EndSplineSet
Validated: 1
EndChar

StartChar: iacute
Encoding: 237 237 118
Width: 375
VWidth: 0
Flags: W
HStem: 0 62<31 125 188 281> 375 63<62 125>
VStem: 62 126<375 438> 125 63<62 375>
LayerCount: 2
Fore
SplineSet
184 643 m 1xc0
 229 598 l 1
 129 498 l 1
 84 543 l 1
 184 643 l 1xc0
62 438 m 1xe0
 125 438 l 1xd0
 188 438 l 1
 188 375 l 1xe0
 188 62 l 1
 281 62 l 1
 281 0 l 1
 188 0 l 1
 125 0 l 1
 31 0 l 1
 31 62 l 1
 125 62 l 1
 125 375 l 1xd0
 62 375 l 1
 62 438 l 1xe0
EndSplineSet
Validated: 1
EndChar

StartChar: icircumflex
Encoding: 238 238 119
Width: 375
VWidth: 0
Flags: W
HStem: 0 62<31 125 188 281> 375 63<62 125>
VStem: 62 126<375 438> 125 63<62 375>
LayerCount: 2
Fore
SplineSet
156 641 m 1xe0
 200 597 l 1
 250 547 l 1
 206 503 l 1
 156 553 l 1
 106 503 l 1
 62 547 l 1
 112 597 l 1
 156 641 l 1xe0
62 438 m 1
 125 438 l 1xd0
 188 438 l 1
 188 375 l 1xe0
 188 62 l 1
 281 62 l 1
 281 0 l 1
 188 0 l 1
 125 0 l 1
 31 0 l 1
 31 62 l 1
 125 62 l 1
 125 375 l 1xd0
 62 375 l 1
 62 438 l 1
EndSplineSet
Validated: 1
EndChar

StartChar: idieresis
Encoding: 239 239 120
Width: 375
VWidth: 0
Flags: W
HStem: 0 62<31 125 188 281> 375 63<62 125> 484 94<38.3939 117.606 195.099 273.606>
VStem: 31 94<491.394 570.606> 62 126<375 438> 125 63<62 375> 188 93<491.394 570.606>
LayerCount: 2
Fore
SplineSet
78 578 m 0xf0
 104 578 125 557 125 531 c 0
 125 505 104 484 78 484 c 0
 52 484 31 505 31 531 c 0
 31 557 52 578 78 578 c 0xf0
234 578 m 0
 260 578 281 557 281 531 c 0
 281 505 260 484 234 484 c 0
 208 484 188 505 188 531 c 0xe2
 188 557 208 578 234 578 c 0
62 438 m 1xe8
 125 438 l 1xe4
 188 438 l 1
 188 375 l 1xe8
 188 62 l 1xe4
 281 62 l 1
 281 0 l 1
 188 0 l 1xe2
 125 0 l 1xe4
 31 0 l 1
 31 62 l 1xf0
 125 62 l 1
 125 375 l 1xe4
 62 375 l 1
 62 438 l 1xe8
EndSplineSet
Validated: 1
EndChar

StartChar: ntilde
Encoding: 241 241 121
Width: 375
VWidth: 0
Flags: W
HStem: 0 21G<0 62 250 312> 375 70<103.452 209.531> 418 20G<0 62> 495 63<183.575 242.642> 567 63<69.2533 129.45>
VStem: 0 68<525.097 564.73> 0 62<0 327.474 403 438> 244 68<560.077 599.857> 250 62<0 327.004>
LayerCount: 2
Fore
SplineSet
102 630 m 0x9d
 104 630 l 0
 140 630 169 606 185 576 c 0
 190 566 198 558 211 558 c 0
 216 558 221 559 227 562 c 0
 240 569 244 578 244 588 c 0
 244 591 244 594 243 597 c 1
 307 627 l 1
 311 617 312 607 312 595 c 0
 312 561 294 526 254 506 c 0
 238 498 224 495 210 495 c 0
 173 495 143 519 128 549 c 0
 123 559 115 567 102 567 c 0
 97 567 92 566 86 563 c 0
 73 556 68 547 68 537 c 0
 68 534 68 531 69 528 c 1
 6 498 l 1
 2 508 0 518 0 530 c 0
 0 564 19 599 59 619 c 0
 68 624 76 627 85 628 c 0
 90 630 96 630 102 630 c 0x9d
156 445 m 0xda80
 234 445 312 407 312 219 c 2
 312 0 l 1
 250 0 l 1
 250 219 l 2
 250 313 218 375 156 375 c 0xda80
 78 375 62 277 62 219 c 2
 62 0 l 1
 0 0 l 1
 0 219 l 1
 0 438 l 1
 62 438 l 1xba80
 62 403 l 1
 87 429 119 445 156 445 c 0xda80
EndSplineSet
Validated: 1
EndChar

StartChar: ograve
Encoding: 242 242 122
Width: 375
VWidth: 0
Flags: W
HStem: -8 70<93.4967 218.503> 375 70<93.4967 218.503>
VStem: -8 70<95.1037 342.418> 250 70<95.1037 342.418>
LayerCount: 2
Fore
SplineSet
129 643 m 1
 229 543 l 1
 184 498 l 1
 84 598 l 1
 129 643 l 1
156 445 m 0
 281 445 320 344 320 219 c 0
 320 94 281 -8 156 -8 c 0
 31 -8 -8 94 -8 219 c 0
 -8 344 31 445 156 445 c 0
156 375 m 0
 62 375 62 297 62 219 c 0
 62 141 62 62 156 62 c 0
 250 62 250 141 250 219 c 0
 250 297 250 375 156 375 c 0
EndSplineSet
Validated: 1
EndChar

StartChar: oacute
Encoding: 243 243 123
Width: 375
VWidth: 0
Flags: W
HStem: -8 70<93.4967 218.503> 375 70<93.4967 218.503>
VStem: -8 70<95.1037 342.418> 250 70<95.1037 342.418>
LayerCount: 2
Fore
SplineSet
184 643 m 1
 229 598 l 1
 129 498 l 1
 84 543 l 1
 184 643 l 1
156 445 m 0
 281 445 320 344 320 219 c 0
 320 94 281 -8 156 -8 c 0
 31 -8 -8 94 -8 219 c 0
 -8 344 31 445 156 445 c 0
156 375 m 0
 62 375 62 297 62 219 c 0
 62 141 62 62 156 62 c 0
 250 62 250 141 250 219 c 0
 250 297 250 375 156 375 c 0
EndSplineSet
Validated: 1
EndChar

StartChar: ocircumflex
Encoding: 244 244 124
Width: 375
VWidth: 0
Flags: W
HStem: -8 70<93.4967 218.503> 375 70<93.4967 218.503>
VStem: -8 70<95.1037 342.418> 250 70<95.1037 342.418>
LayerCount: 2
Fore
SplineSet
156 641 m 1
 200 597 l 1
 250 547 l 1
 206 503 l 1
 156 553 l 1
 106 503 l 1
 62 547 l 1
 112 597 l 1
 156 641 l 1
156 445 m 0
 281 445 320 344 320 219 c 0
 320 94 281 -8 156 -8 c 0
 31 -8 -8 94 -8 219 c 0
 -8 344 31 445 156 445 c 0
156 375 m 0
 62 375 62 297 62 219 c 0
 62 141 62 62 156 62 c 0
 250 62 250 141 250 219 c 0
 250 297 250 375 156 375 c 0
EndSplineSet
Validated: 1
EndChar

StartChar: otilde
Encoding: 245 245 125
Width: 375
VWidth: 0
Flags: W
HStem: -8 70<93.4967 218.503> 375 70<93.4967 218.503> 495 63<183.575 242.642> 567 63<69.2533 129.45>
VStem: -8 70<95.1037 342.418> 0 68<525.097 564.73> 244 68<560.077 599.857> 250 70<95.1037 342.418>
LayerCount: 2
Fore
SplineSet
102 630 m 0xf6
 104 630 l 0
 140 630 169 606 185 576 c 0
 190 566 198 558 211 558 c 0
 216 558 221 559 227 562 c 0
 240 569 244 578 244 588 c 0
 244 591 244 594 243 597 c 1
 307 627 l 1
 311 617 312 607 312 595 c 0
 312 561 294 526 254 506 c 0
 238 498 224 495 210 495 c 0
 173 495 143 519 128 549 c 0
 123 559 115 567 102 567 c 0
 97 567 92 566 86 563 c 0
 73 556 68 547 68 537 c 0
 68 534 68 531 69 528 c 1
 6 498 l 1
 2 508 0 518 0 530 c 0
 0 564 19 599 59 619 c 0
 68 624 76 627 85 628 c 0
 90 630 96 630 102 630 c 0xf6
156 445 m 0
 281 445 320 344 320 219 c 0
 320 94 281 -8 156 -8 c 0
 31 -8 -8 94 -8 219 c 0xf9
 -8 344 31 445 156 445 c 0
156 375 m 0
 62 375 62 297 62 219 c 0
 62 141 62 62 156 62 c 0
 250 62 250 141 250 219 c 0
 250 297 250 375 156 375 c 0
EndSplineSet
Validated: 1
EndChar

StartChar: odieresis
Encoding: 246 246 126
Width: 375
VWidth: 0
Flags: W
HStem: -8 70<93.4967 218.503> 375 70<93.4967 218.503> 484 94<38.3939 117.606 195.099 273.606>
VStem: -8 70<95.1037 342.418> 31 94<491.394 570.606> 188 93<491.394 570.606> 250 70<95.1037 342.418>
LayerCount: 2
Fore
SplineSet
78 578 m 0xe8
 104 578 125 557 125 531 c 0
 125 505 104 484 78 484 c 0
 52 484 31 505 31 531 c 0
 31 557 52 578 78 578 c 0xe8
234 578 m 0
 260 578 281 557 281 531 c 0
 281 505 260 484 234 484 c 0
 208 484 188 505 188 531 c 0xe4
 188 557 208 578 234 578 c 0
156 445 m 0
 281 445 320 344 320 219 c 0
 320 94 281 -8 156 -8 c 0
 31 -8 -8 94 -8 219 c 0xf2
 -8 344 31 445 156 445 c 0
156 375 m 0
 62 375 62 297 62 219 c 0
 62 141 62 62 156 62 c 0
 250 62 250 141 250 219 c 0
 250 297 250 375 156 375 c 0
EndSplineSet
Validated: 1
EndChar

StartChar: ugrave
Encoding: 249 249 127
Width: 375
VWidth: 0
Flags: W
HStem: -8 70<102.469 208.548> 0 21G<250 312> 418 20G<0 62 250 312>
VStem: 0 62<110.543 438> 250 62<0 34 109.956 438>
LayerCount: 2
Fore
SplineSet
129 643 m 1x38
 229 543 l 1
 184 498 l 1
 84 598 l 1
 129 643 l 1x38
0 438 m 1
 62 438 l 1
 62 219 l 2
 62 125 94 62 156 62 c 0xb8
 234 62 250 161 250 219 c 2
 250 438 l 1
 312 438 l 1
 312 219 l 1
 312 0 l 1
 250 0 l 1x78
 250 34 l 1
 225 8 193 -8 156 -8 c 0xb8
 78 -8 0 31 0 219 c 2
 0 438 l 1
EndSplineSet
Validated: 1
EndChar

StartChar: uacute
Encoding: 250 250 128
Width: 375
VWidth: 0
Flags: W
HStem: -8 70<102.469 208.548> 0 21G<250 312> 418 20G<0 62 250 312>
VStem: 0 62<110.543 438> 250 62<0 34 109.956 438>
LayerCount: 2
Fore
SplineSet
184 643 m 1x38
 229 598 l 1
 129 498 l 1
 84 543 l 1
 184 643 l 1x38
0 438 m 1
 62 438 l 1
 62 219 l 2
 62 125 94 62 156 62 c 0xb8
 234 62 250 161 250 219 c 2
 250 438 l 1
 312 438 l 1
 312 219 l 1
 312 0 l 1
 250 0 l 1x78
 250 34 l 1
 225 8 193 -8 156 -8 c 0xb8
 78 -8 0 31 0 219 c 2
 0 438 l 1
EndSplineSet
Validated: 1
EndChar

StartChar: ucircumflex
Encoding: 251 251 129
Width: 375
VWidth: 0
Flags: W
HStem: -8 70<102.469 208.548> 0 21G<250 312> 418 20G<0 62 250 312>
VStem: 0 62<110.543 438> 250 62<0 34 109.956 438>
LayerCount: 2
Fore
SplineSet
156 641 m 1x38
 200 597 l 1
 250 547 l 1
 206 503 l 1
 156 553 l 1
 106 503 l 1
 62 547 l 1
 112 597 l 1
 156 641 l 1x38
0 438 m 1
 62 438 l 1
 62 219 l 2
 62 125 94 62 156 62 c 0xb8
 234 62 250 161 250 219 c 2
 250 438 l 1
 312 438 l 1
 312 219 l 1
 312 0 l 1
 250 0 l 1x78
 250 34 l 1
 225 8 193 -8 156 -8 c 0xb8
 78 -8 0 31 0 219 c 2
 0 438 l 1
EndSplineSet
Validated: 1
EndChar

StartChar: udieresis
Encoding: 252 252 130
Width: 375
VWidth: 0
Flags: W
HStem: -8 70<102.469 208.548> 0 21G<250 312> 418 20G<0 62 250 312> 484 94<38.3939 117.606 195.099 273.606>
VStem: 0 62<110.543 438> 31 94<491.394 570.606> 188 93<491.394 570.606> 250 62<0 34 109.956 438>
LayerCount: 2
Fore
SplineSet
78 578 m 0x34
 104 578 125 557 125 531 c 0
 125 505 104 484 78 484 c 0
 52 484 31 505 31 531 c 0
 31 557 52 578 78 578 c 0x34
234 578 m 0
 260 578 281 557 281 531 c 0
 281 505 260 484 234 484 c 0
 208 484 188 505 188 531 c 0x32
 188 557 208 578 234 578 c 0
0 438 m 1xb9
 62 438 l 1
 62 219 l 2
 62 125 94 62 156 62 c 0xb9
 234 62 250 161 250 219 c 2
 250 438 l 1
 312 438 l 1
 312 219 l 1
 312 0 l 1
 250 0 l 1x79
 250 34 l 1
 225 8 193 -8 156 -8 c 0
 78 -8 0 31 0 219 c 2
 0 438 l 1xb9
EndSplineSet
Validated: 1
EndChar

StartChar: yacute
Encoding: 253 253 131
Width: 375
VWidth: 0
Flags: W
HStem: -195 70<92.1526 220.523> -8 70<92.2571 219.819> 418 20G<0 62 250 312>
VStem: 0 62<-94.2638 -71.2239 93.6802 438> 250 62<-92.0833 31 92.5866 438>
LayerCount: 2
Fore
SplineSet
184 643 m 1
 229 598 l 1
 129 498 l 1
 84 543 l 1
 184 643 l 1
0 438 m 1
 62 438 l 1
 62 219 l 2
 62 141 62 62 156 62 c 0
 234 62 250 118 250 188 c 2
 250 438 l 1
 312 438 l 1
 312 0 l 2
 312 -125 281 -195 156 -195 c 0
 58 -195 18 -152 5 -73 c 1
 67 -56 l 1
 79 -107 108 -125 156 -125 c 0
 218 -125 250 -94 250 0 c 2
 250 31 l 1
 219 0 195 -8 156 -8 c 0
 62 -8 0 55 0 219 c 2
 0 438 l 1
EndSplineSet
Validated: 1
EndChar

StartChar: ydieresis
Encoding: 255 255 132
Width: 375
VWidth: 0
Flags: W
HStem: -195 70<92.1526 220.523> -8 70<92.2571 219.819> 418 20G<0 62 250 312> 484 94<38.3939 117.606 195.099 273.606>
VStem: 0 62<-94.2638 -71.2239 93.6802 438> 31 94<491.394 570.606> 188 93<491.394 570.606> 250 62<-92.0833 31 92.5866 438>
LayerCount: 2
Fore
SplineSet
78 578 m 0xf4
 104 578 125 557 125 531 c 0
 125 505 104 484 78 484 c 0
 52 484 31 505 31 531 c 0
 31 557 52 578 78 578 c 0xf4
234 578 m 0
 260 578 281 557 281 531 c 0
 281 505 260 484 234 484 c 0
 208 484 188 505 188 531 c 0xf2
 188 557 208 578 234 578 c 0
0 438 m 1xf9
 62 438 l 1
 62 219 l 2
 62 141 62 62 156 62 c 0
 234 62 250 118 250 188 c 2
 250 438 l 1
 312 438 l 1
 312 0 l 2
 312 -125 281 -195 156 -195 c 0
 58 -195 18 -152 5 -73 c 1
 67 -56 l 1
 79 -107 108 -125 156 -125 c 0
 218 -125 250 -94 250 0 c 2
 250 31 l 1
 219 0 195 -8 156 -8 c 0
 62 -8 0 55 0 219 c 2
 0 438 l 1xf9
EndSplineSet
Validated: 1
EndChar

StartChar: question
Encoding: 63 63 134
Width: 375
VWidth: 0
Flags: W
HStem: -8 110<113.463 199.153> 562 71<82.9577 230.399>
VStem: -8 70<469 541.158> 102 109<3.84669 90.1533> 125 63<180 332.453> 250 70<416.116 541.848>
LayerCount: 2
Fore
SplineSet
156 633 m 0xec
 281 633 320 563 320 469 c 0
 320 344 188 375 188 281 c 2
 188 180 l 1
 125 180 l 1
 125 281 l 2
 125 406 250 375 250 469 c 0
 250 547 218 562 156 562 c 0
 94 562 62 547 62 469 c 1
 -8 469 l 1
 -8 562 47 633 156 633 c 0xec
156 102 m 0
 186 102 211 77 211 47 c 0
 211 17 186 -8 156 -8 c 0
 126 -8 102 17 102 47 c 0xf4
 102 77 126 102 156 102 c 0
EndSplineSet
Validated: 1
EndChar

StartChar: exclam
Encoding: 33 33 135
Width: 375
VWidth: 0
Flags: W
HStem: -8 110<113.463 199.153> 605 20G<109 203>
VStem: 102 109<3.84669 90.1533> 109 94<365.067 625>
LayerCount: 2
Fore
SplineSet
109 625 m 1xd0
 203 625 l 1
 203 611 203 596 203 581 c 0
 203 458 202 291 188 180 c 1
 125 180 l 1
 109 305 109 500 109 625 c 1xd0
156 102 m 0
 186 102 211 77 211 47 c 0
 211 17 186 -8 156 -8 c 0
 126 -8 102 17 102 47 c 0xe0
 102 77 126 102 156 102 c 0
EndSplineSet
Validated: 1
EndChar

StartChar: numbersign
Encoding: 35 35 136
Width: 375
VWidth: 0
Flags: W
HStem: 0 21G<16 88.3077 156 229.179> 156 63<-16 33 110 174 251 328> 398 63<-16 61 138 201 278 328> 605 20G<83.6829 156 224.683 297>
LayerCount: 2
Fore
SplineSet
86 625 m 1
 156 625 l 1
 138 461 l 1
 208 461 l 1
 227 625 l 1
 297 625 l 1
 278 461 l 1
 328 461 l 1
 328 398 l 1
 271 398 l 1
 251 219 l 1
 328 219 l 1
 328 156 l 1
 244 156 l 1
 227 0 l 1
 156 0 l 1
 174 156 l 1
 104 156 l 1
 86 0 l 1
 16 0 l 1
 33 156 l 1
 -16 156 l 1
 -16 219 l 1
 40 219 l 1
 61 398 l 1
 -16 398 l 1
 -16 461 l 1
 67 461 l 1
 86 625 l 1
131 398 m 1
 110 219 l 1
 181 219 l 1
 201 398 l 1
 131 398 l 1
EndSplineSet
Validated: 1
EndChar

StartChar: period
Encoding: 46 46 137
Width: 375
VWidth: 0
Flags: W
HStem: -8 110<105.463 191.153>
VStem: 94 109<3.84669 90.1533>
LayerCount: 2
Fore
SplineSet
148 102 m 0
 178 102 203 77 203 47 c 0
 203 17 178 -8 148 -8 c 0
 118 -8 94 17 94 47 c 0
 94 77 118 102 148 102 c 0
EndSplineSet
Validated: 1
EndChar

StartChar: comma
Encoding: 44 44 138
Width: 375
VWidth: 0
Flags: W
HStem: -109 211<133.154 156.289>
VStem: 94 109<4.67569 90.1533>
LayerCount: 2
Fore
SplineSet
148 102 m 0
 178 102 203 77 203 47 c 0
 203 -15 172 -70 141 -109 c 1
 94 -109 l 1
 125 -78 129 -28 132 -5 c 1
 110 2 94 23 94 47 c 0
 94 77 118 102 148 102 c 0
EndSplineSet
Validated: 1
EndChar

StartChar: colon
Encoding: 58 58 139
Width: 375
VWidth: 0
Flags: W
HStem: -8 110<105.463 191.153> 234 110<105.463 191.153>
VStem: 94 109<3.84669 90.1533 245.847 332.153>
LayerCount: 2
Fore
SplineSet
148 344 m 0
 178 344 203 319 203 289 c 0
 203 259 178 234 148 234 c 0
 118 234 94 259 94 289 c 0
 94 319 118 344 148 344 c 0
148 102 m 0
 178 102 203 77 203 47 c 0
 203 17 178 -8 148 -8 c 0
 118 -8 94 17 94 47 c 0
 94 77 118 102 148 102 c 0
EndSplineSet
Validated: 1
EndChar

StartChar: semicolon
Encoding: 59 59 140
Width: 375
VWidth: 0
Flags: W
HStem: 234 110<105.463 191.153>
VStem: 94 109<4.67569 90.1533 245.847 332.153>
LayerCount: 2
Fore
SplineSet
148 344 m 0
 178 344 203 319 203 289 c 0
 203 259 178 234 148 234 c 0
 118 234 94 259 94 289 c 0
 94 319 118 344 148 344 c 0
148 102 m 0
 178 102 203 77 203 47 c 0
 203 -15 172 -70 141 -109 c 1
 94 -109 l 1
 125 -78 129 -28 132 -5 c 1
 110 2 94 23 94 47 c 0
 94 77 118 102 148 102 c 0
EndSplineSet
Validated: 1
EndChar

StartChar: quotesingle
Encoding: 39 39 141
Width: 375
VWidth: 0
Flags: W
HStem: 430 203<94 156>
VStem: 86 78<433.611 633> 94 62<430 627.958>
LayerCount: 2
Fore
SplineSet
86 633 m 1xc0
 164 633 l 1xc0
 164 524 156 508 156 430 c 1
 94 430 l 1xa0
 94 508 86 524 86 633 c 1xc0
EndSplineSet
Validated: 1
EndChar

StartChar: quotedbl
Encoding: 34 34 142
Width: 375
VWidth: 0
Flags: W
HStem: 430 203<47 109 203 266>
VStem: 39 78<433.611 633> 47 62<430 627.958> 195 78<433.611 633> 203 63<430 627.958>
LayerCount: 2
Fore
SplineSet
39 633 m 1xc0
 117 633 l 1xc0
 117 524 109 508 109 430 c 1
 47 430 l 1xa0
 47 508 39 524 39 633 c 1xc0
195 633 m 1x90
 273 633 l 1x90
 273 524 266 508 266 430 c 1
 203 430 l 1x88
 203 508 195 524 195 633 c 1x90
EndSplineSet
Validated: 1
EndChar

StartChar: underscore
Encoding: 95 95 143
Width: 375
VWidth: 0
Flags: W
HStem: -8 70<-8 320>
VStem: -8 328<-8 62>
LayerCount: 2
Fore
SplineSet
-8 -8 m 1
 -8 62 l 1
 320 62 l 1
 320 -8 l 1
 -8 -8 l 1
EndSplineSet
Validated: 1
EndChar

StartChar: parenleft
Encoding: 40 40 144
Width: 375
VWidth: 0
Flags: W
HStem: 0 68<203.805 229.853> 557 68<203.805 229.853>
VStem: 39 86<169.13 455.124>
LayerCount: 2
Fore
SplineSet
228 625 m 1
 246 557 l 1
 185 541 125 482 125 312 c 0
 125 142 185 84 246 68 c 1
 228 0 l 1
 123 27 39 127 39 312 c 0
 39 497 123 598 228 625 c 1
EndSplineSet
Validated: 1
EndChar

StartChar: parenright
Encoding: 41 41 145
Width: 375
VWidth: 0
Flags: W
HStem: 0 68<83.0441 109.177> 557 68<83.0441 109.177>
VStem: 188 85<169.13 455.124>
LayerCount: 2
Fore
SplineSet
85 625 m 1
 190 598 273 497 273 312 c 0
 273 127 190 27 85 0 c 1
 66 68 l 1
 127 84 188 142 188 312 c 0
 188 482 127 541 66 557 c 1
 85 625 l 1
EndSplineSet
Validated: 1
EndChar

StartChar: bracketleft
Encoding: 91 91 146
Width: 375
VWidth: 0
Flags: W
HStem: -8 70<125 258> 562 71<125 258>
VStem: 55 203<-8 62 562 633> 55 70<62 562>
LayerCount: 2
Fore
SplineSet
55 633 m 1xe0
 258 633 l 1
 258 562 l 1xe0
 125 562 l 1
 125 62 l 1xd0
 258 62 l 1
 258 -8 l 1
 55 -8 l 1
 55 62 l 1
 55 562 l 1
 55 633 l 1xe0
EndSplineSet
Validated: 1
EndChar

StartChar: bracketright
Encoding: 93 93 147
Width: 375
VWidth: 0
Flags: W
HStem: -8 70<55 188> 562 71<55 188>
VStem: 55 203<-8 62 562 633> 188 70<62 562>
LayerCount: 2
Fore
SplineSet
258 633 m 1xe0
 258 562 l 1
 258 62 l 1
 258 -8 l 1
 55 -8 l 1
 55 62 l 1xe0
 188 62 l 1
 188 562 l 1xd0
 55 562 l 1
 55 633 l 1
 258 633 l 1xe0
EndSplineSet
Validated: 1
EndChar

StartChar: braceleft
Encoding: 123 123 148
Width: 375
VWidth: 0
Flags: W
HStem: -8 70<141.748 258> 562 71<141.406 258>
VStem: 62 63<80.1651 230.9 394.1 544.688> 78 63<126.461 262.024 362.937 498.539>
LayerCount: 2
Fore
SplineSet
258 633 m 1xe0
 258 562 l 1
 188 562 125 562 125 500 c 0xe0
 125 469 141 422 141 383 c 0xd0
 141 344 124 312 62 312 c 1xe0
 124 312 141 281 141 242 c 0xd0
 141 203 125 156 125 125 c 0
 125 63 188 62 258 62 c 1
 258 -8 l 1
 125 -8 62 31 62 125 c 0xe0
 62 156 78 194 78 223 c 0
 78 252 62 273 0 273 c 1
 0 352 l 1
 62 352 78 373 78 402 c 0xd0
 78 431 62 469 62 500 c 0
 62 594 125 633 258 633 c 1xe0
EndSplineSet
Validated: 1
EndChar

StartChar: braceright
Encoding: 125 125 149
Width: 375
VWidth: 0
Flags: W
HStem: -8 70<47 163.252> 562 71<47 163.299>
VStem: 164 63<126.461 262.024 362.937 498.539> 180 62<80.1651 230.9 394.1 544.688>
LayerCount: 2
Fore
SplineSet
47 633 m 1xd0
 180 633 242 594 242 500 c 0xd0
 242 469 227 431 227 402 c 0
 227 373 243 352 305 352 c 1
 305 273 l 1
 243 273 227 252 227 223 c 0xe0
 227 194 242 156 242 125 c 0
 242 31 180 -8 47 -8 c 1
 47 62 l 1
 117 62 180 63 180 125 c 0xd0
 180 156 164 203 164 242 c 0xe0
 164 281 180 312 242 312 c 1xd0
 180 312 164 344 164 383 c 0xe0
 164 422 180 469 180 500 c 0
 180 562 117 562 47 562 c 1
 47 633 l 1xd0
EndSplineSet
Validated: 1
EndChar

StartChar: bar
Encoding: 124 124 150
Width: 375
VWidth: 0
Flags: W
HStem: -8 21G<125 188> 613 20G<125 188>
VStem: 125 63<-8 633>
LayerCount: 2
Fore
SplineSet
125 -8 m 1
 125 633 l 1
 188 633 l 1
 188 -8 l 1
 125 -8 l 1
EndSplineSet
Validated: 1
EndChar

StartChar: slash
Encoding: 47 47 151
Width: 375
VWidth: 0
Flags: W
HStem: -8 21G<-8 62> 613 20G<258 320>
VStem: -8 70<-8 50.9517> 258 62<578.716 633>
LayerCount: 2
Fore
SplineSet
320 633 m 1
 320 563 62 31 62 -8 c 1
 -8 -8 l 1
 -8 62 258 594 258 633 c 1
 320 633 l 1
EndSplineSet
Validated: 1
EndChar

StartChar: backslash
Encoding: 92 92 152
Width: 375
VWidth: 0
Flags: W
HStem: -8 21G<250 320> 613 20G<-8 55>
VStem: -8 63<578.716 633> 250 70<-8 50.9517>
LayerCount: 2
Fore
SplineSet
-8 633 m 1
 55 633 l 1
 55 594 320 62 320 -8 c 1
 250 -8 l 1
 250 31 -8 563 -8 633 c 1
EndSplineSet
Validated: 1
EndChar

StartChar: brokenbar
Encoding: 166 166 153
Width: 375
VWidth: 0
Flags: W
HStem: -8 21G<125 188> 613 20G<125 188>
VStem: 125 63<-8 250 375 633>
LayerCount: 2
Fore
SplineSet
125 633 m 1
 188 633 l 1
 188 375 l 1
 125 375 l 1
 125 633 l 1
125 250 m 1
 188 250 l 1
 188 -8 l 1
 125 -8 l 1
 125 250 l 1
EndSplineSet
Validated: 1
EndChar

StartChar: plus
Encoding: 43 43 154
Width: 375
VWidth: 0
Flags: W
HStem: 273 79<23 117 195 289> 425 20G<117 195>
VStem: 117 78<180 273 352 445>
LayerCount: 2
Fore
SplineSet
117 445 m 1
 195 445 l 1
 195 352 l 1
 289 352 l 1
 289 273 l 1
 195 273 l 1
 195 180 l 1
 117 180 l 1
 117 273 l 1
 23 273 l 1
 23 352 l 1
 117 352 l 1
 117 445 l 1
EndSplineSet
Validated: 1
EndChar

StartChar: hyphen
Encoding: 45 45 155
Width: 375
VWidth: 0
Flags: W
HStem: 273 79<23 289>
VStem: 23 266<273 352>
LayerCount: 2
Fore
SplineSet
23 273 m 1
 23 352 l 1
 289 352 l 1
 289 273 l 1
 23 273 l 1
EndSplineSet
Validated: 1
EndChar

StartChar: equal
Encoding: 61 61 156
Width: 375
VWidth: 0
Flags: W
HStem: 180 78<23 289> 367 78<23 289>
VStem: 23 266<180 258 367 445>
LayerCount: 2
Fore
SplineSet
23 445 m 1
 289 445 l 1
 289 367 l 1
 23 367 l 1
 23 445 l 1
23 258 m 1
 289 258 l 1
 289 180 l 1
 23 180 l 1
 23 258 l 1
EndSplineSet
Validated: 1
EndChar

StartChar: less
Encoding: 60 60 157
Width: 375
VWidth: 0
Flags: W
HStem: 180 62<227.581 320> 281 63<-8 66.8147> 383 62<227.581 320>
VStem: -8 328
CounterMasks: 1 e0
LayerCount: 2
Fore
SplineSet
320 445 m 1
 320 383 l 1
 267 383 171 339 95 312 c 1
 171 285 267 242 320 242 c 1
 320 180 l 1
 218 180 47 281 -8 281 c 1
 -8 344 l 1
 47 344 218 445 320 445 c 1
EndSplineSet
Validated: 1
EndChar

StartChar: greater
Encoding: 62 62 158
Width: 375
VWidth: 0
Flags: W
HStem: 180 62<-8 84.4193> 281 63<245.185 320> 383 62<-8 84.4193>
VStem: -8 328
CounterMasks: 1 e0
LayerCount: 2
Fore
SplineSet
-8 383 m 1
 -8 445 l 1
 94 445 265 344 320 344 c 1
 320 281 l 1
 265 281 94 180 -8 180 c 1
 -8 242 l 1
 45 242 142 285 218 312 c 1
 142 339 45 383 -8 383 c 1
EndSplineSet
Validated: 1
EndChar

StartChar: percent
Encoding: 37 37 159
Width: 375
VWidth: 0
Flags: W
HStem: -8 55<205.24 262.813> 203 55<205.24 262.813> 367 55<49.1866 106.813> 578 55<49.1866 106.813>
VStem: -16 55<428.75 571.25> 117 55<428.75 571.25> 141 54<53.7504 196.25> 273 55<53.7504 196.25>
LayerCount: 2
Fore
SplineSet
78 633 m 0xfd
 125 633 172 570 172 500 c 0
 172 430 125 367 78 367 c 0
 31 367 -16 430 -16 500 c 0
 -16 570 31 633 78 633 c 0xfd
285 599 m 1
 340 567 l 1
 27 26 l 1
 -27 58 l 1
 285 599 l 1
78 578 m 0
 55 578 39 555 39 500 c 0
 39 445 55 422 78 422 c 0
 101 422 117 445 117 500 c 0
 117 555 101 578 78 578 c 0
234 258 m 0
 281 258 328 195 328 125 c 0
 328 55 281 -8 234 -8 c 0
 187 -8 141 55 141 125 c 0xfb
 141 195 187 258 234 258 c 0
234 203 m 0
 211 203 195 180 195 125 c 0
 195 70 211 47 234 47 c 0
 257 47 273 70 273 125 c 0
 273 180 257 203 234 203 c 0
EndSplineSet
Validated: 1
EndChar

StartChar: asterisk
Encoding: 42 42 160
Width: 375
VWidth: 0
Flags: W
HStem: 312 313<125 188>
VStem: 125 63<312 415 522 625>
LayerCount: 2
Fore
SplineSet
125 625 m 1
 188 625 l 1
 188 522 l 1
 276 574 l 1
 308 520 l 1
 219 469 l 1
 308 418 l 1
 276 363 l 1
 188 415 l 1
 188 312 l 1
 125 312 l 1
 125 415 l 1
 36 363 l 1
 5 418 l 1
 94 469 l 1
 5 520 l 1
 36 574 l 1
 125 522 l 1
 125 625 l 1
EndSplineSet
Validated: 1
EndChar

StartChar: currency
Encoding: 164 164 161
Width: 375
VWidth: 0
Flags: W
HStem: 195 63<112.823 199.909> 367 63<113.217 199.071>
VStem: 39 63<268.823 355.909> 211 62<269.217 355.071>
LayerCount: 2
Fore
SplineSet
52 462 m 1
 99 414 l 1
 116 424 135 430 156 430 c 0
 177 430 197 424 214 414 c 1
 261 462 l 1
 306 417 l 1
 258 370 l 1
 268 353 273 333 273 312 c 0
 273 291 268 272 258 255 c 1
 306 208 l 1
 261 163 l 1
 214 211 l 1
 197 201 177 195 156 195 c 0
 135 195 116 201 99 211 c 1
 52 163 l 1
 7 208 l 1
 55 255 l 1
 45 272 39 291 39 312 c 0
 39 333 45 353 55 370 c 1
 7 417 l 1
 52 462 l 1
156 367 m 0
 126 367 102 342 102 312 c 0
 102 282 126 258 156 258 c 0
 186 258 211 282 211 312 c 0
 211 342 186 367 156 367 c 0
EndSplineSet
Validated: 1
EndChar

StartChar: exclamdown
Encoding: 161 161 162
Width: 375
VWidth: 0
Flags: W
HStem: 461 109<113.463 199.153>
VStem: 102 109<472.847 558.537> 109 94<-62 197.933>
LayerCount: 2
Fore
SplineSet
109 -62 m 1xa0
 109 63 109 258 125 383 c 1
 188 383 l 1
 202 272 203 105 203 -18 c 0
 203 -33 203 -48 203 -62 c 1
 109 -62 l 1xa0
156 461 m 0
 126 461 102 486 102 516 c 0
 102 546 126 570 156 570 c 0
 186 570 211 546 211 516 c 0xc0
 211 486 186 461 156 461 c 0
EndSplineSet
Validated: 1
EndChar

StartChar: questiondown
Encoding: 191 191 163
Width: 375
VWidth: 0
Flags: W
HStem: -70 70<81.6008 229.042> 461 109<113.463 199.153>
VStem: -8 70<20.925 146.758> 102 109<472.847 558.537> 125 63<229.703 383> 250 70<21.8421 94>
LayerCount: 2
Fore
SplineSet
156 -70 m 0xec
 31 -70 -8 0 -8 94 c 0
 -8 219 125 187 125 281 c 2
 125 383 l 1
 188 383 l 1
 188 281 l 2
 188 156 62 188 62 94 c 0
 62 16 94 0 156 0 c 0
 218 0 250 16 250 94 c 1
 320 94 l 1
 320 1 265 -70 156 -70 c 0xec
156 461 m 0
 126 461 102 486 102 516 c 0
 102 546 126 570 156 570 c 0
 186 570 211 546 211 516 c 0xf4
 211 486 186 461 156 461 c 0
EndSplineSet
Validated: 1
EndChar

StartChar: logicalnot
Encoding: 172 172 164
Width: 375
VWidth: 0
Flags: W
HStem: 281 63<-8 250>
VStem: 250 70<188 281>
LayerCount: 2
Fore
SplineSet
-8 344 m 1
 250 344 l 1
 320 344 l 1
 320 281 l 1
 320 188 l 1
 250 188 l 1
 250 281 l 1
 -8 281 l 1
 -8 344 l 1
EndSplineSet
Validated: 1
EndChar

StartChar: uni00AD
Encoding: 173 173 165
Width: 375
VWidth: 0
Flags: W
HStem: 273 79<23 289>
VStem: 23 266<273 352>
LayerCount: 2
Fore
SplineSet
23 273 m 1
 23 352 l 1
 289 352 l 1
 289 273 l 1
 23 273 l 1
EndSplineSet
Validated: 1
EndChar

StartChar: macron
Encoding: 175 175 166
Width: 375
VWidth: 0
Flags: W
HStem: 562 71<-8 320>
VStem: -8 328<562 633>
LayerCount: 2
Fore
SplineSet
-8 562 m 1
 -8 633 l 1
 320 633 l 1
 320 562 l 1
 -8 562 l 1
EndSplineSet
Validated: 1
EndChar

StartChar: plusminus
Encoding: 177 177 167
Width: 375
VWidth: 0
Flags: W
HStem: -8 78<23 289> 273 79<23 117 195 289> 425 20G<117 195>
VStem: 117 78<180 273 352 445>
LayerCount: 2
Fore
SplineSet
117 445 m 1
 195 445 l 1
 195 352 l 1
 289 352 l 1
 289 273 l 1
 195 273 l 1
 195 180 l 1
 117 180 l 1
 117 273 l 1
 23 273 l 1
 23 352 l 1
 117 352 l 1
 117 445 l 1
23 70 m 1
 289 70 l 1
 289 -8 l 1
 23 -8 l 1
 23 70 l 1
EndSplineSet
Validated: 1
EndChar

StartChar: ellipsis
Encoding: 256 8230 168
Width: 375
VWidth: 0
Flags: W
HStem: 0 94<-8.60614 70.6061 116.394 195.606 241.394 320.606>
VStem: -16 94<7.39386 86.6061> 109 94<7.39386 86.6061> 234 94<7.39386 86.6061>
CounterMasks: 1 70
LayerCount: 2
Fore
SplineSet
156 94 m 0
 182 94 203 73 203 47 c 0
 203 21 182 0 156 0 c 0
 130 0 109 21 109 47 c 0
 109 73 130 94 156 94 c 0
31 94 m 0
 57 94 78 73 78 47 c 0
 78 21 57 0 31 0 c 0
 5 0 -16 21 -16 47 c 0
 -16 73 5 94 31 94 c 0
281 94 m 0
 307 94 328 73 328 47 c 0
 328 21 307 0 281 0 c 0
 255 0 234 21 234 47 c 0
 234 73 255 94 281 94 c 0
EndSplineSet
Validated: 1
EndChar

StartChar: Ydieresis
Encoding: 257 376 169
Width: 375
VWidth: 0
Flags: W
HStem: 0 21G<125 188> 605 20G<0 62 250 312> 672 94<38.3939 117.606 195.099 273.606>
VStem: 0 62<472.166 625> 31 94<679.394 758.606> 125 63<0 289.507> 188 93<679.394 758.606> 250 62<472.166 625>
LayerCount: 2
Fore
SplineSet
78 766 m 0xe8
 104 766 125 745 125 719 c 0
 125 693 104 672 78 672 c 0
 52 672 31 693 31 719 c 0
 31 745 52 766 78 766 c 0xe8
234 766 m 0
 260 766 281 745 281 719 c 0
 281 693 260 672 234 672 c 0
 208 672 188 693 188 719 c 0xe2
 188 745 208 766 234 766 c 0
0 625 m 1xf5
 62 625 l 1
 62 562 l 2
 62 491 116 402 156 322 c 1
 196 402 250 491 250 562 c 2
 250 625 l 1
 312 625 l 1
 312 562 l 2
 312 468 219 312 188 250 c 1
 188 0 l 1
 125 0 l 1
 125 250 l 1
 94 312 0 468 0 562 c 2
 0 625 l 1xf5
EndSplineSet
Validated: 1
EndChar

StartChar: Euro
Encoding: 258 8364 171
Width: 375
VWidth: 0
Flags: W
HStem: -8 70<137.669 210.672> 211 62<-23 24 99 195> 352 62<-23 24 99 195> 562 71<137.012 211.249>
VStem: -23 218<211 273 352 414> 23 71<130.519 211 273 352 414 494.481> 239 66<92.2795 125.909 499.091 532.721>
LayerCount: 2
Fore
SplineSet
172 633 m 0xfa
 221 633 282 606 305 501 c 1
 239 483 l 1
 229 534 197 562 172 562 c 0
 137 562 110 509 99 414 c 1
 195 414 l 1
 195 352 l 1xfa
 95 352 l 1
 94 339 94 326 94 312 c 0xf6
 94 298 94 286 95 273 c 1
 195 273 l 1
 195 211 l 1
 99 211 l 1
 110 116 137 62 172 62 c 0
 197 62 229 91 239 142 c 1
 305 124 l 1
 282 19 221 -8 172 -8 c 0
 111 -8 46 32 28 211 c 1
 -23 211 l 1
 -23 273 l 1xfa
 24 273 l 1
 23 286 23 298 23 312 c 0xf6
 23 326 23 339 24 352 c 1
 -23 352 l 1
 -23 414 l 1
 28 414 l 1
 46 593 111 633 172 633 c 0xfa
EndSplineSet
Validated: 1
EndChar

StartChar: thorn
Encoding: 254 254 172
Width: 375
VWidth: 0
Flags: W
HStem: -8 70<92.1807 218.501> 375 70<89.7232 218.501> 605 20G<0 62>
VStem: 0 62<-188 31 92.5866 347.538 406 625> 250 70<93.3406 344.232>
LayerCount: 2
Fore
SplineSet
156 445 m 0
 250 445 320 407 320 219 c 0
 320 31 250 -8 156 -8 c 0
 117 -8 93 0 62 31 c 1
 62 -188 l 1
 0 -188 l 1
 0 20 0 417 0 625 c 1
 62 625 l 1
 62 406 l 1
 85 437 125 445 156 445 c 0
156 375 m 0
 78 375 62 328 62 250 c 2
 62 188 l 2
 62 118 78 62 156 62 c 0
 250 62 250 141 250 219 c 0
 250 297 250 375 156 375 c 0
EndSplineSet
Validated: 1
EndChar

StartChar: divide
Encoding: 247 247 173
Width: 375
VWidth: 0
Flags: W
HStem: 117 110<113.463 199.153> 273 79<23 289> 398 110<113.463 199.153>
VStem: 102 109<128.847 215.153 409.847 496.153>
CounterMasks: 1 e0
LayerCount: 2
Fore
SplineSet
156 508 m 0
 186 508 211 483 211 453 c 0
 211 423 186 398 156 398 c 0
 126 398 102 423 102 453 c 0
 102 483 126 508 156 508 c 0
23 352 m 1
 289 352 l 1
 289 273 l 1
 23 273 l 1
 23 352 l 1
156 227 m 0
 186 227 211 202 211 172 c 0
 211 142 186 117 156 117 c 0
 126 117 102 142 102 172 c 0
 102 202 126 227 156 227 c 0
EndSplineSet
Validated: 1
EndChar

StartChar: eth
Encoding: 240 240 174
Width: 375
VWidth: 0
Flags: W
HStem: -8 70<99.2825 212.899> 344 70<99.2825 214.355> 452 61<56.1639 155.45> 613 20G<62 163>
VStem: -8 70<103.746 302.254> 250 70<102.828 303.342>
LayerCount: 2
Fore
SplineSet
156 344 m 0
 78 344 62 265 62 203 c 0
 62 141 78 62 156 62 c 0
 233 62 250 138 250 200 c 0
 250 209 250 219 249 229 c 0
 245 285 224 344 156 344 c 0
62 633 m 1
 148 633 l 1
 178 612 208 588 232 556 c 1
 271 568 307 581 344 594 c 1
 360 533 l 1
 330 518 300 507 269 496 c 1
 299 432 318 343 320 214 c 0
 320 210 320 207 320 203 c 0
 320 202 320 201 320 199 c 0
 320 198 320 196 320 195 c 0
 318 89 278 -8 156 -8 c 0
 31 -8 -8 94 -8 203 c 0
 -8 312 31 414 156 414 c 0
 179 414 199 410 217 404 c 1
 210 427 201 452 190 475 c 1
 148 465 105 457 58 452 c 1
 42 513 l 1
 87 520 124 526 157 534 c 1
 132 573 100 608 62 633 c 1
EndSplineSet
Validated: 1
EndChar

StartChar: multiply
Encoding: 215 215 175
Width: 375
VWidth: 0
Flags: W
HStem: 191 243
VStem: 35 242
LayerCount: 2
Fore
SplineSet
223 434 m 1
 277 379 l 1
 212 312 l 1
 277 246 l 1
 223 191 l 1
 156 257 l 1
 90 191 l 1
 35 246 l 1
 101 312 l 1
 35 379 l 1
 90 434 l 1
 156 368 l 1
 223 434 l 1
EndSplineSet
Validated: 1
EndChar

StartChar: Thorn
Encoding: 222 222 176
Width: 375
VWidth: 0
Flags: W
HStem: 0 21G<0 62> 186 64<62 222.752> 438 62<62 221.479> 605 20G<0 62>
VStem: 0 62<0 188 250 438 500 625> 258 62<283.859 405.67>
LayerCount: 2
Fore
SplineSet
0 625 m 1
 62 625 l 1
 62 500 l 1
 125 500 l 2
 195 500 320 485 320 344 c 0
 320 285 306 186 107 186 c 0
 92 186 78 187 62 188 c 1
 62 0 l 1
 0 0 l 1
 0 500 l 1
 0 625 l 1
98 438 m 0
 86 438 74 438 62 438 c 1
 62 250 l 1
 75 250 88 250 101 250 c 0
 182 250 258 256 258 344 c 0
 258 433 180 438 98 438 c 0
EndSplineSet
Validated: 1
EndChar

StartChar: germandbls
Encoding: 223 223 177
Width: 375
VWidth: 0
Flags: W
HStem: 0 62<125 216.411> 562 63<97.4913 203.407>
VStem: 0 62<0 523.024> 125 70<300.542 355.519> 219 70<423.411 547.044> 250 70<91.9939 204.226>
LayerCount: 2
Fore
SplineSet
156 625 m 0xf8
 258 625 289 539 289 484 c 0xf8
 289 343 195 375 195 328 c 0
 195 297 320 258 320 156 c 0
 320 62 281 0 125 0 c 1
 125 62 l 1
 219 62 250 94 250 156 c 0xf4
 250 226 125 258 125 328 c 0
 125 437 219 375 219 484 c 0
 219 500 218 562 156 562 c 0
 94 562 62 516 62 438 c 2
 62 0 l 1
 0 0 l 1
 0 438 l 2
 0 532 31 625 156 625 c 0xf8
EndSplineSet
Validated: 1
EndChar

StartChar: ae
Encoding: 230 230 178
Width: 375
VWidth: 0
Flags: W
HStem: -8 70<68.7848 118.992 192.099 267.17> 180 70<188.011 247.006> 188 70<65.8716 124.956> 375 70<44.6592 120.775 194.375 243.858>
VStem: -8 70<64.5082 185.8> 125 63<64.219 179.758 258.54 372.781> 250 70<251.634 372.666>
LayerCount: 2
Fore
SplineSet
94 445 m 0xbe
 124 445 144 439 158 425 c 1
 173 439 194 445 219 445 c 0
 281 445 320 406 320 312 c 0
 320 195 258 180 219 180 c 2
 188 180 l 1xde
 188 174 188 167 188 162 c 0
 188 76 190 62 219 62 c 0
 237 62 243 67 247 88 c 1
 310 52 l 1
 297 10 272 -8 219 -8 c 0
 189 -8 168 -1 154 13 c 1
 139 -1 119 -8 94 -8 c 0
 32 -8 -8 31 -8 125 c 0
 -8 242 55 258 94 258 c 2
 125 258 l 1
 125 264 125 270 125 275 c 0
 125 361 123 375 94 375 c 0
 76 375 69 371 65 350 c 1
 3 386 l 1
 16 428 41 445 94 445 c 0xbe
219 375 m 0
 203 375 188 359 188 312 c 2
 188 289 l 1
 188 273 l 2
 188 250 203 250 219 250 c 0
 242 250 250 257 250 312 c 0
 250 359 235 375 219 375 c 0
94 188 m 0xbe
 71 188 62 180 62 125 c 0
 62 78 78 62 94 62 c 0
 110 62 125 78 125 125 c 2
 125 148 l 1
 125 164 l 2
 125 187 110 188 94 188 c 0xbe
EndSplineSet
Validated: 1
EndChar

StartChar: Eth
Encoding: 208 208 179
Width: 375
VWidth: 0
Flags: W
HStem: 0 62<125 203.634> 281 63<0 62 125 188> 562 63<125 203.634>
VStem: 62 63<62 281 344 562> 250 70<120.737 503.369>
LayerCount: 2
Fore
SplineSet
62 625 m 1
 125 625 l 2
 250 625 320 593 320 312 c 0
 320 31 250 0 125 0 c 2
 62 0 l 1
 62 281 l 1
 0 281 l 1
 0 344 l 1
 62 344 l 1
 62 625 l 1
125 562 m 1
 125 344 l 1
 188 344 l 1
 188 281 l 1
 125 281 l 1
 125 62 l 1
 219 62 250 93 250 312 c 0
 250 531 219 562 125 562 c 1
EndSplineSet
Validated: 1
EndChar

StartChar: AE
Encoding: 198 198 180
Width: 375
VWidth: 0
Flags: W
HStem: 0 62<188 312> 188 62<44 125> 312 63<188 312> 562 63<188 312>
VStem: -31 62<0 176.494> 125 187<0 62 312 375> 125 63<62 188 250 312 375 531>
LayerCount: 2
Fore
SplineSet
125 625 m 2xfa
 188 625 l 1xfa
 312 625 l 1
 312 562 l 1xfc
 188 562 l 1
 188 375 l 1xfa
 312 375 l 1
 312 312 l 1xfc
 188 312 l 1
 188 62 l 1xfa
 312 62 l 1
 312 0 l 1xfc
 188 0 l 1xfa
 125 0 l 1xfc
 125 188 l 1
 38 188 l 1
 34 133 31 70 31 0 c 1
 -31 0 l 1
 -31 406 63 625 125 625 c 2xfa
125 531 m 1
 113 531 66 455 44 250 c 1
 125 250 l 1xfa
 125 312 l 1
 125 375 l 1xfc
 125 531 l 1
EndSplineSet
Validated: 1
EndChar

StartChar: guillemotright
Encoding: 187 187 181
Width: 375
VWidth: 0
Flags: W
HStem: 180 265
LayerCount: 2
Fore
SplineSet
188 445 m 1
 276 356 l 1
 320 312 l 1
 276 269 l 1
 188 180 l 1
 144 225 l 1
 231 312 l 1
 144 400 l 1
 188 445 l 1
31 445 m 1
 120 356 l 1
 164 312 l 1
 120 269 l 1
 31 180 l 1
 -13 225 l 1
 75 312 l 1
 -13 400 l 1
 31 445 l 1
EndSplineSet
Validated: 1
EndChar

StartChar: uni00B9
Encoding: 185 185 182
Width: 375
VWidth: 0
Flags: W
HStem: 250 62<62 125 188 250> 605 20G<113.333 188>
VStem: 125 63<312 500>
LayerCount: 2
Fore
SplineSet
125 625 m 1
 188 625 l 1
 188 312 l 1
 250 312 l 1
 250 250 l 1
 62 250 l 1
 62 312 l 1
 125 312 l 1
 125 500 l 1
 116 485 l 1
 62 517 l 1
 125 625 l 1
EndSplineSet
Validated: 1
EndChar

StartChar: periodcentered
Encoding: 183 183 183
Width: 375
VWidth: 0
Flags: W
HStem: 258 109<113.463 199.153>
VStem: 102 109<269.463 355.153>
LayerCount: 2
Fore
SplineSet
211 312 m 0
 211 282 186 258 156 258 c 0
 126 258 102 282 102 312 c 0
 102 342 126 367 156 367 c 0
 186 367 211 342 211 312 c 0
EndSplineSet
Validated: 1
EndChar

StartChar: paragraph
Encoding: 182 182 184
Width: 375
VWidth: 0
Flags: W
HStem: 0 21G<125 188 250 312> 562 63<188 250 312 375>
VStem: -8 196<319.957 555.705> 125 63<0 250> 250 62<0 562>
LayerCount: 2
Fore
SplineSet
125 625 m 2xd8
 250 625 l 1
 312 625 l 1
 375 625 l 1
 375 562 l 1
 312 562 l 1
 312 0 l 1
 250 0 l 1
 250 562 l 1
 188 562 l 1
 188 0 l 1
 125 0 l 1
 125 250 l 1xd8
 39 250 -8 313 -8 438 c 0xe8
 -8 563 39 625 125 625 c 2xd8
EndSplineSet
Validated: 1
EndChar

StartChar: uni00B5
Encoding: 181 181 185
Width: 375
VWidth: 0
Flags: W
HStem: -8 70<102.525 208.548> 0 21G<250 312>
VStem: 0 62<-195 21 110.543 312> 250 62<0 34 109.956 312>
LayerCount: 2
Fore
SplineSet
0 312 m 1x70
 62 312 l 1
 62 219 l 2
 62 125 94 62 156 62 c 0xb0
 234 62 250 161 250 219 c 2
 250 312 l 1
 312 312 l 1
 312 219 l 1
 312 0 l 1
 250 0 l 1x70
 250 34 l 1
 225 8 193 -8 156 -8 c 0xb0
 123 -8 89 -1 62 21 c 1
 62 -195 l 1
 0 -195 l 1
 0 219 l 1
 0 312 l 1x70
EndSplineSet
Validated: 1
EndChar

StartChar: copyright
Encoding: 169 169 186
Width: 375
VWidth: 0
Flags: W
HStem: 172 70<106.985 252.928> 297 55<164.016 209.125> 461 55<164.016 208.762> 570 71<106.985 252.928>
VStem: -16 71<298.337 514.663> 109 55<352.795 460.968> 305 70<298.337 514.663>
LayerCount: 2
Fore
SplineSet
180 641 m 0
 271 641 375 594 375 438 c 2
 375 375 l 2
 375 219 271 172 180 172 c 0
 89 172 -16 219 -16 375 c 2
 -16 438 l 2
 -16 594 89 641 180 641 c 0
180 570 m 0
 110 570 55 524 55 438 c 2
 55 375 l 2
 55 289 110 242 180 242 c 0
 250 242 305 289 305 375 c 2
 305 438 l 2
 305 524 250 570 180 570 c 0
180 516 m 0
 203 516 224 504 237 485 c 1
 188 458 l 1
 186 460 184 461 180 461 c 0
 171 461 164 454 164 445 c 2
 164 367 l 2
 164 358 171 352 180 352 c 0
 184 352 186 352 188 354 c 1
 237 327 l 1
 224 308 203 297 180 297 c 0
 141 297 109 328 109 367 c 2
 109 445 l 2
 109 484 141 516 180 516 c 0
EndSplineSet
Validated: 1
EndChar

StartChar: guillemotleft
Encoding: 171 171 187
Width: 375
VWidth: 0
Flags: W
HStem: 180 265
LayerCount: 2
Fore
SplineSet
125 445 m 1
 169 400 l 1
 81 312 l 1
 169 225 l 1
 125 180 l 1
 36 269 l 1
 -8 312 l 1
 36 356 l 1
 125 445 l 1
281 445 m 1
 325 400 l 1
 237 312 l 1
 325 225 l 1
 281 180 l 1
 192 269 l 1
 148 312 l 1
 192 356 l 1
 281 445 l 1
EndSplineSet
Validated: 1
EndChar

StartChar: registered
Encoding: 174 174 188
Width: 375
VWidth: 0
Flags: W
HStem: 172 70<106.985 252.928> 375 55<164 193.38> 461 55<164 194.205> 570 71<106.985 252.928>
VStem: -16 71<298.337 514.663> 109 55<297 375 430 461> 195 55<430.169 460.984> 203 55<297 368.564> 305 70<298.337 514.663>
LayerCount: 2
Fore
SplineSet
180 641 m 0xfc80
 271 641 375 594 375 438 c 2
 375 375 l 2
 375 219 271 172 180 172 c 0
 89 172 -16 219 -16 375 c 2
 -16 438 l 2
 -16 594 89 641 180 641 c 0xfc80
180 570 m 0
 110 570 55 524 55 438 c 2
 55 375 l 2
 55 289 110 242 180 242 c 0
 250 242 305 289 305 375 c 2
 305 438 l 2
 305 524 250 570 180 570 c 0
109 516 m 1
 164 516 l 1
 180 516 l 2
 219 516 250 484 250 445 c 0xfe80
 250 426 242 409 230 397 c 1
 249 382 258 345 258 297 c 1
 203 297 l 1xfd80
 203 352 187 375 164 375 c 1
 164 297 l 1
 109 297 l 1
 109 516 l 1
164 461 m 1
 164 430 l 1
 180 430 l 2
 189 430 195 436 195 445 c 0
 195 454 189 461 180 461 c 2
 164 461 l 1
EndSplineSet
Validated: 1
EndChar

StartChar: uni2070
Encoding: 259 8304 189
Width: 375
VWidth: 0
Flags: W
HStem: 242 63<127.973 184.06> 570 63<127.973 184.06>
VStem: 55 62<310.549 564.865> 195 63<310.549 564.865>
LayerCount: 2
Fore
SplineSet
156 633 m 0
 218 633 258 594 258 438 c 0
 258 282 218 242 156 242 c 0
 94 242 55 282 55 438 c 0
 55 594 94 633 156 633 c 0
156 570 m 0
 125 570 117 540 117 438 c 0
 117 336 125 305 156 305 c 0
 187 305 195 336 195 438 c 0
 195 540 187 570 156 570 c 0
EndSplineSet
Validated: 1
EndChar

StartChar: uni2074
Encoding: 260 8308 190
Width: 375
VWidth: 0
Flags: W
HStem: 375 63<138 188 250 289> 605 20G<174.524 250>
VStem: 188 62<250 375 438 513>
LayerCount: 2
Fore
SplineSet
188 625 m 1
 250 625 l 1
 250 438 l 1
 289 438 l 1
 289 375 l 1
 250 375 l 1
 250 250 l 1
 188 250 l 1
 188 375 l 1
 62 375 l 1
 62 438 l 1
 188 625 l 1
188 513 m 1
 138 438 l 1
 188 438 l 1
 188 513 l 1
EndSplineSet
Validated: 1
EndChar

StartChar: uni2075
Encoding: 261 8309 191
Width: 375
VWidth: 0
Flags: W
HStem: 242 70<124.334 181.027> 438 62<125 179.695> 562 63<125 250>
VStem: 62 63<500 562> 188 70<315.365 435.021>
LayerCount: 2
Fore
SplineSet
62 625 m 1
 250 625 l 1
 250 562 l 1
 125 562 l 1
 125 500 l 1
 156 500 l 2
 234 500 258 437 258 375 c 0
 258 313 234 242 156 242 c 0
 102 242 74 275 62 317 c 1
 130 335 l 1
 134 323 141 312 156 312 c 0
 187 312 188 359 188 375 c 0
 188 391 187 438 156 438 c 2
 125 438 l 1
 62 438 l 1
 62 500 l 1
 62 562 l 1
 62 609 l 1
 62 625 l 1
EndSplineSet
Validated: 1
EndChar

StartChar: uni2076
Encoding: 262 8310 192
Width: 375
VWidth: 0
Flags: W
HStem: 242 63<125.639 186.725> 445 63<124.421 186.725> 570 63<120.048 209.845>
VStem: 55 62<310.344 440.791 504 566.617> 195 63<310.323 439.677 557.277 568.4>
LayerCount: 2
Fore
SplineSet
156 305 m 0
 187 305 195 336 195 375 c 0
 195 414 187 445 156 445 c 0
 125 445 117 414 117 375 c 0
 117 336 125 305 156 305 c 0
156 242 m 0
 80 242 56 279 55 367 c 1
 55 500 l 2
 55 594 78 633 156 633 c 0
 216 633 243 611 253 559 c 1
 193 543 l 1
 191 564 182 570 156 570 c 0
 118 570 117 556 117 504 c 1
 128 507 141 508 156 508 c 0
 234 508 258 469 258 375 c 0
 258 281 234 242 156 242 c 0
EndSplineSet
Validated: 1
EndChar

StartChar: uni2077
Encoding: 263 8311 193
Width: 375
VWidth: 0
Flags: W
HStem: 562 63<62 187>
VStem: 125 63<281 312.726>
LayerCount: 2
Fore
SplineSet
62 625 m 1
 250 625 l 1
 250 562 l 1
 188 281 l 1
 125 281 l 1
 187 562 l 1
 62 562 l 1
 62 625 l 1
EndSplineSet
Validated: 1
EndChar

StartChar: uni2078
Encoding: 264 8312 194
Width: 375
VWidth: 0
Flags: W
HStem: 242 70<129.172 183.18> 438 62<129.749 182.978> 562 71<127.711 186.041>
VStem: 55 70<314.293 436.361 502.204 559.322> 188 70<314.426 436.241 502.338 559.188>
LayerCount: 2
Fore
SplineSet
156 633 m 0
 218 633 258 593 258 531 c 0
 258 498 251 474 232 458 c 1
 249 435 258 422 258 375 c 0
 258 297 234 242 156 242 c 0
 78 242 55 297 55 375 c 0
 55 422 63 435 80 458 c 1
 61 474 55 498 55 531 c 0
 55 593 94 633 156 633 c 0
156 562 m 0
 140 562 125 547 125 531 c 0
 125 515 140 500 156 500 c 0
 172 500 188 515 188 531 c 0
 188 547 172 562 156 562 c 0
156 438 m 0
 140 438 125 430 125 375 c 0
 125 328 133 312 156 312 c 0
 179 312 188 328 188 375 c 0
 188 430 172 438 156 438 c 0
EndSplineSet
Validated: 1
EndChar

StartChar: uni2079
Encoding: 265 8313 195
Width: 375
VWidth: 0
Flags: W
HStem: 242 63<102.44 191.991> 367 63<125.302 187.579> 570 63<125.302 186.388>
VStem: 55 62<306.6 317.75 435.323 564.677> 195 63<308.383 371 434.209 564.656>
LayerCount: 2
Fore
SplineSet
156 570 m 0
 125 570 117 539 117 500 c 0
 117 461 125 430 156 430 c 0
 187 430 195 461 195 500 c 0
 195 539 187 570 156 570 c 0
156 633 m 0
 232 633 257 596 258 508 c 1
 258 375 l 2
 258 281 234 242 156 242 c 0
 96 242 70 264 60 316 c 1
 119 332 l 1
 121 311 130 305 156 305 c 0
 194 305 195 319 195 371 c 1
 184 368 171 367 156 367 c 0
 78 367 55 406 55 500 c 0
 55 594 78 633 156 633 c 0
EndSplineSet
Validated: 1
EndChar

StartChar: uni2080
Encoding: 266 8320 196
Width: 375
VWidth: 0
Flags: W
HStem: -8 63<127.973 184.06> 320 63<127.973 184.06>
VStem: 55 62<60.5492 314.865> 195 63<60.5492 314.865>
LayerCount: 2
Fore
SplineSet
156 383 m 0
 218 383 258 344 258 188 c 0
 258 32 218 -8 156 -8 c 0
 94 -8 55 32 55 188 c 0
 55 344 94 383 156 383 c 0
156 320 m 0
 125 320 117 290 117 188 c 0
 117 86 125 55 156 55 c 0
 187 55 195 86 195 188 c 0
 195 290 187 320 156 320 c 0
EndSplineSet
Validated: 1
EndChar

StartChar: uni2081
Encoding: 267 8321 197
Width: 375
VWidth: 0
Flags: W
HStem: -8 63<62 125 188 250>
VStem: 125 63<55 242>
LayerCount: 2
Fore
SplineSet
125 367 m 1
 188 367 l 1
 188 55 l 1
 250 55 l 1
 250 -8 l 1
 62 -8 l 1
 62 55 l 1
 125 55 l 1
 125 242 l 1
 116 228 l 1
 62 259 l 1
 125 367 l 1
EndSplineSet
Validated: 1
EndChar

StartChar: uni2082
Encoding: 268 8322 198
Width: 375
VWidth: 0
Flags: W
HStem: 0 62<133 250> 312 71<130.921 181.447>
VStem: 55 70<250 307.236> 62 71<62 126.778> 188 70<213.313 308.452>
LayerCount: 2
Fore
SplineSet
156 383 m 0xe8
 218 383 258 344 258 250 c 0
 258 125 133 187 133 62 c 1
 250 62 l 1
 250 0 l 1
 62 0 l 1
 62 62 l 2xd8
 62 218 188 180 188 250 c 0
 188 297 172 312 156 312 c 0
 140 312 125 297 125 250 c 1
 55 250 l 1
 55 344 94 383 156 383 c 0xe8
EndSplineSet
Validated: 1
EndChar

StartChar: uni2083
Encoding: 269 8323 199
Width: 375
VWidth: 0
Flags: W
HStem: -8 70<122.05 183.18> 188 62<133 182.978> 312 71<120.466 186.041>
VStem: 188 70<64.4258 186.241 252.338 309.188>
LayerCount: 2
Fore
SplineSet
156 383 m 0
 218 383 258 343 258 281 c 0
 258 248 251 224 232 208 c 1
 249 185 258 172 258 125 c 0
 258 47 234 -8 156 -8 c 0
 99 -8 72 21 61 67 c 1
 129 85 l 1
 133 68 141 62 156 62 c 0
 179 62 188 78 188 125 c 0
 188 180 172 188 156 188 c 2
 133 188 l 1
 133 250 l 1
 156 250 l 2
 172 250 188 265 188 281 c 0
 188 297 172 312 156 312 c 0
 143 312 131 303 127 290 c 1
 58 309 l 1
 68 356 103 383 156 383 c 0
EndSplineSet
Validated: 1
EndChar

StartChar: uni2084
Encoding: 270 8324 200
Width: 375
VWidth: 0
Flags: W
HStem: 0 21G<188 250> 125 63<138 188 250 289>
VStem: 188 62<0 125 188 263>
LayerCount: 2
Fore
SplineSet
188 375 m 1
 250 375 l 1
 250 188 l 1
 289 188 l 1
 289 125 l 1
 250 125 l 1
 250 0 l 1
 188 0 l 1
 188 125 l 1
 62 125 l 1
 62 188 l 1
 188 375 l 1
188 263 m 1
 138 188 l 1
 188 188 l 1
 188 263 l 1
EndSplineSet
Validated: 1
EndChar

StartChar: uni2085
Encoding: 271 8325 201
Width: 375
VWidth: 0
Flags: W
HStem: -8 70<124.334 181.027> 188 62<125 179.695> 312 63<125 250>
VStem: 62 63<250 312> 188 70<65.3652 185.021>
LayerCount: 2
Fore
SplineSet
62 375 m 1
 250 375 l 1
 250 312 l 1
 125 312 l 1
 125 250 l 1
 156 250 l 2
 234 250 258 187 258 125 c 0
 258 63 234 -8 156 -8 c 0
 102 -8 74 25 62 67 c 1
 130 85 l 1
 134 73 141 62 156 62 c 0
 187 62 188 109 188 125 c 0
 188 141 187 188 156 188 c 2
 125 188 l 1
 62 188 l 1
 62 250 l 1
 62 312 l 1
 62 359 l 1
 62 375 l 1
EndSplineSet
Validated: 1
EndChar

StartChar: uni2086
Encoding: 272 8326 202
Width: 375
VWidth: 0
Flags: W
HStem: -8 63<125.639 186.725> 195 63<124.421 186.725> 320 63<120.048 209.845>
VStem: 55 62<60.3438 190.791 254 316.617> 195 63<60.3226 189.677 307.277 318.4>
LayerCount: 2
Fore
SplineSet
156 55 m 0
 187 55 195 86 195 125 c 0
 195 164 187 195 156 195 c 0
 125 195 117 164 117 125 c 0
 117 86 125 55 156 55 c 0
156 -8 m 0
 80 -8 56 29 55 117 c 1
 55 250 l 2
 55 344 78 383 156 383 c 0
 216 383 243 361 253 309 c 1
 193 293 l 1
 191 314 182 320 156 320 c 0
 118 320 117 306 117 254 c 1
 128 257 141 258 156 258 c 0
 234 258 258 219 258 125 c 0
 258 31 234 -8 156 -8 c 0
EndSplineSet
Validated: 1
EndChar

StartChar: uni2087
Encoding: 273 8327 203
Width: 375
VWidth: 0
Flags: W
HStem: 0 21G<125 192.413> 281 63<62 187>
VStem: 125 63<0 31.7258>
LayerCount: 2
Fore
SplineSet
62 344 m 1
 250 344 l 1
 250 281 l 1
 188 0 l 1
 125 0 l 1
 187 281 l 1
 62 281 l 1
 62 344 l 1
EndSplineSet
Validated: 1
EndChar

StartChar: uni2088
Encoding: 274 8328 204
Width: 375
VWidth: 0
Flags: W
HStem: -8 70<129.172 183.18> 188 62<129.749 182.978> 312 71<127.711 186.041>
VStem: 55 70<64.2933 186.361 252.204 309.322> 188 70<64.4258 186.241 252.338 309.188>
LayerCount: 2
Fore
SplineSet
156 383 m 0
 218 383 258 343 258 281 c 0
 258 248 251 224 232 208 c 1
 249 185 258 172 258 125 c 0
 258 47 234 -8 156 -8 c 0
 78 -8 55 47 55 125 c 0
 55 172 63 185 80 208 c 1
 61 224 55 248 55 281 c 0
 55 343 94 383 156 383 c 0
156 312 m 0
 140 312 125 297 125 281 c 0
 125 265 140 250 156 250 c 0
 172 250 188 265 188 281 c 0
 188 297 172 312 156 312 c 0
156 188 m 0
 140 188 125 180 125 125 c 0
 125 78 133 62 156 62 c 0
 179 62 188 78 188 125 c 0
 188 180 172 188 156 188 c 0
EndSplineSet
Validated: 1
EndChar

StartChar: uni2089
Encoding: 275 8329 205
Width: 375
VWidth: 0
Flags: W
HStem: -8 63<102.44 191.991> 117 63<125.302 187.579> 320 63<125.302 186.388>
VStem: 55 62<56.5996 67.75 185.323 314.677> 195 63<58.3833 121 184.209 314.656>
LayerCount: 2
Fore
SplineSet
156 320 m 0
 125 320 117 289 117 250 c 0
 117 211 125 180 156 180 c 0
 187 180 195 211 195 250 c 0
 195 289 187 320 156 320 c 0
156 383 m 0
 232 383 257 346 258 258 c 1
 258 125 l 2
 258 31 234 -8 156 -8 c 0
 96 -8 70 14 60 66 c 1
 119 82 l 1
 121 61 130 55 156 55 c 0
 194 55 195 69 195 121 c 1
 184 118 171 117 156 117 c 0
 78 117 55 156 55 250 c 0
 55 344 78 383 156 383 c 0
EndSplineSet
Validated: 1
EndChar

StartChar: uni00B2
Encoding: 178 178 206
Width: 375
VWidth: 0
Flags: W
HStem: 250 62<133 250> 562 71<130.921 181.447>
VStem: 55 70<500 557.236> 62 71<312 376.778> 188 70<463.313 558.452>
LayerCount: 2
Fore
SplineSet
156 633 m 0xe8
 218 633 258 594 258 500 c 0
 258 375 133 437 133 312 c 1
 250 312 l 1
 250 250 l 1
 62 250 l 1
 62 312 l 2xd8
 62 468 188 430 188 500 c 0
 188 547 172 562 156 562 c 0
 140 562 125 547 125 500 c 1
 55 500 l 1
 55 594 94 633 156 633 c 0xe8
EndSplineSet
Validated: 1
EndChar

StartChar: uni00B3
Encoding: 179 179 207
Width: 375
VWidth: 0
Flags: W
HStem: 242 70<122.05 183.18> 438 62<133 182.978> 562 71<120.466 186.041>
VStem: 188 70<314.426 436.241 502.338 559.188>
LayerCount: 2
Fore
SplineSet
156 633 m 0
 218 633 258 593 258 531 c 0
 258 498 251 474 232 458 c 1
 249 435 258 422 258 375 c 0
 258 297 234 242 156 242 c 0
 99 242 72 271 61 317 c 1
 129 335 l 1
 133 318 141 312 156 312 c 0
 179 312 188 328 188 375 c 0
 188 430 172 438 156 438 c 2
 133 438 l 1
 133 500 l 1
 156 500 l 2
 172 500 188 515 188 531 c 0
 188 547 172 562 156 562 c 0
 143 562 131 553 127 540 c 1
 58 559 l 1
 68 606 103 633 156 633 c 0
EndSplineSet
Validated: 1
EndChar
